<?xml version="1.0" encoding="utf-8"?>
<!-- Generator: Adobe Illustrator 19.1.1, SVG Export Plug-In . SVG Version: 6.00 Build 0)  -->
<svg version="1.1" id="Layer_1" xmlns="http://www.w3.org/2000/svg" xmlns:xlink="http://www.w3.org/1999/xlink" x="0px" y="0px"
	 viewBox="-41 32 1182 730" style="enable-background:new -41 32 1182 730;" xml:space="preserve">
<style type="text/css">
	.st0{fill:#034E7B;}
	.st1{fill:#A6BDDB;}
	.st2{fill:#222222;}
	.st3{font-family:'ArialMT';}
	.st4{font-size:12px;}
	.st5{display:none;fill:none;stroke:#222222;}
	.st6{fill:none;stroke:#222222;}
	.st7{fill:#333333;}
	.st8{font-family:'Arial-BoldMT';}
</style>
<g transform="translate(36,30)">
	<g>
		<g>
			<rect x="-27" y="694" class="st0" width="13" height="8"/>
		</g>
		<g>
			<rect x="-7" y="690" class="st0" width="13" height="12"/>
		</g>
		<g>
			<rect x="12" y="669" class="st0" width="13" height="33"/>
		</g>
		<g>
			<rect x="32" y="683" class="st0" width="13" height="19"/>
		</g>
		<g>
			<rect x="52" y="680" class="st0" width="13" height="22"/>
		</g>
		<g>
			<rect x="71" y="677" class="st0" width="13" height="25"/>
		</g>
		<g>
			<rect x="91" y="686" class="st0" width="13" height="16"/>
		</g>
		<g>
			<rect x="111" y="680" class="st0" width="13" height="22"/>
		</g>
		<g>
			<rect x="130" y="677" class="st0" width="13" height="25"/>
		</g>
		<g>
			<rect x="150" y="689" class="st0" width="13" height="13"/>
		</g>
		<g>
			<rect x="170" y="678" class="st0" width="13" height="24"/>
		</g>
		<g>
			<rect x="189" y="673" class="st0" width="13" height="29"/>
		</g>
		<g>
			<rect x="209" y="670" class="st0" width="13" height="32"/>
		</g>
		<g>
			<rect x="229" y="681" class="st0" width="13" height="21"/>
		</g>
		<g>
			<rect x="249" y="671" class="st0" width="13" height="31"/>
		</g>
		<g>
			<rect x="268" y="681" class="st0" width="13" height="21"/>
		</g>
		<g>
			<rect x="288" y="683" class="st0" width="13" height="19"/>
		</g>
		<g>
			<rect x="308" y="676" class="st0" width="13" height="26"/>
		</g>
		<g>
			<rect x="327" y="672" class="st0" width="13" height="30"/>
		</g>
		<g>
			<rect x="347" y="673" class="st0" width="13" height="29"/>
		</g>
		<g>
			<rect x="367" y="678" class="st0" width="13" height="24"/>
		</g>
		<g>
			<rect x="386" y="655" class="st0" width="13" height="47"/>
		</g>
		<g>
			<rect x="406" y="676" class="st0" width="13" height="26"/>
		</g>
		<g>
			<rect x="426" y="673" class="st0" width="13" height="29"/>
		</g>
		<g>
			<rect x="445" y="647" class="st0" width="13" height="55"/>
		</g>
		<g>
			<rect x="465" y="491" class="st0" width="13" height="211"/>
		</g>
		<g>
			<rect x="485" y="543" class="st0" width="13" height="159"/>
		</g>
		<g>
			<rect x="504" y="546" class="st0" width="13" height="156"/>
		</g>
		<g>
			<rect x="524" y="212" class="st0" width="13" height="490"/>
		</g>
		<g>
			<rect x="544" y="32" class="st1" width="13" height="670"/>
			<text transform="matrix(1 0 0 1 562.5 46.832)" class="st2 st3 st4">1.9M</text>
		</g>
		<g>
			<rect x="563" y="243" class="st0" width="13" height="459"/>
		</g>
		<g>
			<rect x="583" y="357" class="st0" width="13" height="345"/>
		</g>
		<g>
			<rect x="603" y="518" class="st0" width="13" height="184"/>
		</g>
		<g>
			<rect x="622" y="583" class="st0" width="13" height="119"/>
		</g>
		<g>
			<rect x="642" y="543" class="st0" width="13" height="159"/>
		</g>
		<g>
			<rect x="662" y="545" class="st0" width="13" height="157"/>
		</g>
		<g>
			<rect x="681" y="589" class="st0" width="13" height="113"/>
		</g>
		<g>
			<rect x="701" y="595" class="st0" width="13" height="107"/>
		</g>
		<g>
			<rect x="721" y="619" class="st0" width="13" height="83"/>
		</g>
		<g>
			<rect x="740" y="607" class="st0" width="13" height="95"/>
		</g>
		<g>
			<rect x="760" y="563" class="st0" width="13" height="139"/>
		</g>
		<g>
			<rect x="780" y="581" class="st0" width="13" height="121"/>
		</g>
		<g>
			<rect x="800" y="619" class="st0" width="13" height="83"/>
		</g>
		<g>
			<rect x="819" y="605" class="st0" width="13" height="97"/>
		</g>
		<g>
			<rect x="839" y="633" class="st0" width="13" height="69"/>
		</g>
		<g>
			<rect x="859" y="644" class="st0" width="13" height="58"/>
		</g>
		<g>
			<rect x="878" y="618" class="st0" width="13" height="84"/>
		</g>
		<g>
			<rect x="898" y="561" class="st0" width="13" height="141"/>
		</g>
		<g>
			<rect x="918" y="580" class="st0" width="13" height="122"/>
		</g>
		<g>
			<rect x="937" y="588" class="st0" width="13" height="114"/>
		</g>
		<g>
			<rect x="957" y="596" class="st0" width="13" height="106"/>
		</g>
		<g>
			<rect x="977" y="587" class="st0" width="13" height="115"/>
		</g>
		<g>
			<rect x="996" y="593" class="st0" width="13" height="109"/>
		</g>
		<g>
			<rect x="1016" y="590" class="st0" width="13" height="112"/>
		</g>
		<g>
			<rect x="1036" y="615" class="st0" width="13" height="87"/>
		</g>
		<g>
			<rect x="1055" y="604" class="st0" width="13" height="98"/>
		</g>
		<g>
			<rect x="1075" y="600" class="st0" width="13" height="102"/>
		</g>
	</g>
	<g>
		<g transform="translate(0,670)">
			<path class="st5" d="M-26.5,38v-5.5h1102V38"/>
			<g transform="translate(20.5,0)">
				<line class="st6" x1="-27" y1="32" x2="-27" y2="38"/>
				<text transform="matrix(1 0 0 1 -40.3477 49.52)" class="st3 st4">2017</text>
			</g>
			<g transform="translate(157.5,0)">
				<line class="st6" x1="-27" y1="32" x2="-27" y2="38"/>
				<text transform="matrix(1 0 0 1 -45.0146 49.52)" class="st3 st4">Jan 08</text>
			</g>
			<g transform="translate(295.5,0)">
				<line class="st6" x1="-27" y1="32" x2="-27" y2="38"/>
				<text transform="matrix(1 0 0 1 -45.0146 49.52)" class="st3 st4">Jan 15</text>
			</g>
			<g transform="translate(433.5,0)">
				<line class="st6" x1="-27" y1="32" x2="-27" y2="38"/>
				<text transform="matrix(1 0 0 1 -45.0146 49.52)" class="st3 st4">Jan 22</text>
			</g>
			<g transform="translate(571.5,0)">
				<line class="st6" x1="-27" y1="32" x2="-27" y2="38"/>
				<text transform="matrix(1 0 0 1 -45.0146 49.52)" class="st3 st4">Jan 29</text>
			</g>
			<g transform="translate(708.5,0)">
				<line class="st6" x1="-27" y1="32" x2="-27" y2="38"/>
				<text transform="matrix(1 0 0 1 -45.6797 49.52)" class="st3 st4">Feb 05</text>
			</g>
			<g transform="translate(846.5,0)">
				<line class="st6" x1="-27" y1="32" x2="-27" y2="38"/>
				<text transform="matrix(1 0 0 1 -45.6797 49.52)" class="st3 st4">Feb 12</text>
			</g>
			<g transform="translate(984.5,0)">
				<line class="st6" x1="-27" y1="32" x2="-27" y2="38"/>
				<text transform="matrix(1 0 0 1 -45.6797 49.52)" class="st3 st4">Feb 19</text>
			</g>
		</g>
		<g>
			<path class="st6" d="M-33,702.5h6.5v-670H-33"/>
			<g transform="translate(0,670.5)">
				<line class="st6" x1="-27" y1="32" x2="-33" y2="32"/>
				<text transform="matrix(1 0 0 1 -52.6816 35.84)" class="st3 st4">0.0</text>
			</g>
			<g transform="translate(0,600.5)">
				<line class="st6" x1="-27" y1="32" x2="-33" y2="32"/>
				<text transform="matrix(1 0 0 1 -62.0215 35.84)" class="st3 st4">200k</text>
			</g>
			<g transform="translate(0,529.5)">
				<line class="st6" x1="-27" y1="32" x2="-33" y2="32"/>
				<text transform="matrix(1 0 0 1 -62.0215 35.84)" class="st3 st4">400k</text>
			</g>
			<g transform="translate(0,459.5)">
				<line class="st6" x1="-27" y1="32" x2="-33" y2="32"/>
				<text transform="matrix(1 0 0 1 -62.0215 35.84)" class="st3 st4">600k</text>
			</g>
			<g transform="translate(0,389.5)">
				<line class="st6" x1="-27" y1="32" x2="-33" y2="32"/>
				<text transform="matrix(1 0 0 1 -62.0215 35.84)" class="st3 st4">800k</text>
			</g>
			<g transform="translate(0,318.5)">
				<line class="st6" x1="-27" y1="32" x2="-33" y2="32"/>
				<text transform="matrix(1 0 0 1 -62.6777 35.84)" class="st3 st4">1.0M</text>
			</g>
			<g transform="translate(0,248.5)">
				<line class="st6" x1="-27" y1="32" x2="-33" y2="32"/>
				<text transform="matrix(1 0 0 1 -62.6777 35.84)" class="st3 st4">1.2M</text>
			</g>
			<g transform="translate(0,178.5)">
				<line class="st6" x1="-27" y1="32" x2="-33" y2="32"/>
				<text transform="matrix(1 0 0 1 -62.6777 35.84)" class="st3 st4">1.4M</text>
			</g>
			<g transform="translate(0,107.5)">
				<line class="st6" x1="-27" y1="32" x2="-33" y2="32"/>
				<text transform="matrix(1 0 0 1 -62.6777 35.84)" class="st3 st4">1.6M</text>
			</g>
			<g transform="translate(0,37.5)">
				<line class="st6" x1="-27" y1="32" x2="-33" y2="32"/>
				<text transform="matrix(1 0 0 1 -62.6777 35.84)" class="st3 st4">1.8M</text>
			</g>
			<text transform="matrix(1 0 0 1 -19.1465 46.52)" class="st7 st8 st4">Tweets per Day</text>
		</g>
	</g>
	<g id="barLegend" transform="translate(952,30)">
		<g transform="translate(0,14)">
			<g transform="translate(0, 0)">
				<rect x="-27" y="32" class="st1" width="55.1" height="30"/>
				<text transform="matrix(1 0 0 1 38.1 52)" class="st3 st4">Travel Ban</text>
			</g>
			<g transform="translate(0, 32)">
				<rect x="-27" y="32" class="st0" width="55.1" height="30"/>
				<text transform="matrix(1 0 0 1 38.1 52)" class="st3 st4">Normal Day</text>
			</g>
		</g>
		<text transform="matrix(1 0 0 1 -27 32)" class="st8 st4">Keyword</text>
	</g>
</g>
</svg>
