<?xml version="1.0" encoding="utf-8"?>
<!-- Generator: Adobe Illustrator 19.1.1, SVG Export Plug-In . SVG Version: 6.00 Build 0)  -->
<svg version="1.1" id="Layer_1" xmlns="http://www.w3.org/2000/svg" xmlns:xlink="http://www.w3.org/1999/xlink" x="0px" y="0px"
	 viewBox="-134.5 125.6 1100 679" style="enable-background:new -134.5 125.6 1100 679;" xml:space="preserve">
<style type="text/css">
	.st0{opacity:0.65;fill:#BEBADA;enable-background:new    ;}
	.st1{opacity:0.65;fill:#B3DE69;enable-background:new    ;}
	.st2{opacity:0.65;fill:#8DD3C7;enable-background:new    ;}
	.st3{opacity:0.65;fill:#80B1D3;enable-background:new    ;}
	.st4{opacity:0.65;fill:#FB8072;enable-background:new    ;}
	.st5{fill:none;stroke:#333333;stroke-dasharray:4,4;}
	.st6{fill:none;stroke:#000000;}
	.st7{font-family:'ArialMT';}
	.st8{font-size:10px;}
	.st9{font-family:'Arial-BoldMT';}
	.st10{font-size:12px;}
	.st11{fill:#BEBADA;}
	.st12{fill:#B3DE69;}
	.st13{fill:#8DD3C7;}
	.st14{fill:#80B1D3;}
	.st15{fill:#FB8072;}
	.st16{fill:none;stroke:#333333;}
	.st17{fill:none;}
	.st18{fill:#333333;}
</style>
<g transform="translate(50,20)">
	<g>
		<circle id="tweetID-824" class="st0" cx="-124" cy="718.2" r="5"/>
		<circle id="tweetID-1817" class="st1" cx="38" cy="696.2" r="5"/>
		<circle id="tweetID-2101" class="st1" cx="74" cy="720.2" r="5"/>
		<circle id="tweetID-2661" class="st2" cx="183" cy="709.2" r="5"/>
		<circle id="tweetID-3009" class="st1" cx="255" cy="713.2" r="5"/>
		<circle id="tweetID-3366" class="st3" cx="309" cy="720.2" r="5"/>
		<circle id="tweetID-3773" class="st1" cx="327" cy="720.2" r="5"/>
		<circle id="tweetID-3938" class="st1" cx="345" cy="718.2" r="5"/>
		<circle id="tweetID-3944" class="st1" cx="345" cy="652.2" r="5"/>
		<circle id="tweetID-3952" class="st4" cx="345" cy="530.2" r="5"/>
		<circle id="tweetID-3953" class="st2" cx="345" cy="689.2" r="5"/>
		<circle id="tweetID-3997" class="st4" cx="345" cy="661.2" r="5"/>
		<circle id="tweetID-4003" class="st4" cx="345" cy="677.2" r="5"/>
		<circle id="tweetID-4056" class="st4" cx="345" cy="437.2" r="5"/>
		<circle id="tweetID-4067" class="st4" cx="345" cy="690.2" r="5"/>
		<circle id="tweetID-4068" class="st0" cx="345" cy="617.2" r="5"/>
		<circle id="tweetID-4078" class="st1" cx="345" cy="628.2" r="5"/>
		<circle id="tweetID-4086" class="st2" cx="345" cy="718.2" r="5"/>
		<circle id="tweetID-4118" class="st2" cx="345" cy="713.2" r="5"/>
		<circle id="tweetID-4127" class="st2" cx="345" cy="715.2" r="5"/>
		<circle id="tweetID-4140" class="st0" cx="345" cy="649.2" r="5"/>
		<circle id="tweetID-4142" class="st0" cx="345" cy="325.2" r="5"/>
		<circle id="tweetID-4167" class="st4" cx="345" cy="681.2" r="5"/>
		<circle id="tweetID-4169" class="st2" cx="345" cy="325.2" r="5"/>
		<circle id="tweetID-4179" class="st4" cx="345" cy="704.2" r="5"/>
		<circle id="tweetID-4236" class="st4" cx="345" cy="713.2" r="5"/>
		<circle id="tweetID-4238" class="st4" cx="345" cy="685.2" r="5"/>
		<circle id="tweetID-4241" class="st2" cx="345" cy="717.2" r="5"/>
		<circle id="tweetID-4249" class="st2" cx="345" cy="670.2" r="5"/>
		<circle id="tweetID-4263" class="st1" cx="363" cy="661.2" r="5"/>
		<circle id="tweetID-4267" class="st4" cx="363" cy="547.2" r="5"/>
		<circle id="tweetID-4270" class="st0" cx="363" cy="641.2" r="5"/>
		<circle id="tweetID-4282" class="st2" cx="363" cy="438.2" r="5"/>
		<circle id="tweetID-4284" class="st1" cx="363" cy="291.2" r="5"/>
		<circle id="tweetID-4294" class="st1" cx="363" cy="643.2" r="5"/>
		<circle id="tweetID-4295" class="st1" cx="363" cy="709.2" r="5"/>
		<circle id="tweetID-4303" class="st1" cx="363" cy="707.2" r="5"/>
		<circle id="tweetID-4319" class="st1" cx="363" cy="648.2" r="5"/>
		<circle id="tweetID-4334" class="st0" cx="363" cy="718.2" r="5"/>
		<circle id="tweetID-4338" class="st4" cx="363" cy="681.2" r="5"/>
		<circle id="tweetID-4346" class="st2" cx="363" cy="693.2" r="5"/>
		<circle id="tweetID-4351" class="st1" cx="363" cy="720.2" r="5"/>
		<circle id="tweetID-4371" class="st1" cx="363" cy="668.2" r="5"/>
		<circle id="tweetID-4372" class="st2" cx="363" cy="512.2" r="5"/>
		<circle id="tweetID-4389" class="st3" cx="363" cy="206.2" r="5"/>
		<circle id="tweetID-4394" class="st0" cx="363" cy="654.2" r="5"/>
		<circle id="tweetID-4398" class="st3" cx="363" cy="313.2" r="5"/>
		<circle id="tweetID-4402" class="st4" cx="363" cy="540.2" r="5"/>
		<circle id="tweetID-4414" class="st4" cx="363" cy="682.2" r="5"/>
		<circle id="tweetID-4415" class="st1" cx="363" cy="720.2" r="5"/>
		<circle id="tweetID-4419" class="st2" cx="363" cy="713.2" r="5"/>
		<circle id="tweetID-4421" class="st4" cx="363" cy="686.2" r="5"/>
		<circle id="tweetID-4422" class="st1" cx="363" cy="134.2" r="5"/>
		<circle id="tweetID-4430" class="st1" cx="363" cy="720.2" r="5"/>
		<circle id="tweetID-4441" class="st1" cx="363" cy="720.2" r="5"/>
		<circle id="tweetID-4473" class="st1" cx="363" cy="712.2" r="5"/>
		<circle id="tweetID-4478" class="st1" cx="363" cy="718.2" r="5"/>
		<circle id="tweetID-4504" class="st1" cx="363" cy="718.2" r="5"/>
		<circle id="tweetID-4506" class="st1" cx="363" cy="714.2" r="5"/>
		<circle id="tweetID-4508" class="st2" cx="363" cy="706.2" r="5"/>
		<circle id="tweetID-4512" class="st1" cx="363" cy="717.2" r="5"/>
		<circle id="tweetID-4525" class="st4" cx="363" cy="678.2" r="5"/>
		<circle id="tweetID-4556" class="st0" cx="363" cy="269.2" r="5"/>
		<circle id="tweetID-4565" class="st0" cx="363" cy="690.2" r="5"/>
		<circle id="tweetID-4576" class="st4" cx="363" cy="686.2" r="5"/>
		<circle id="tweetID-4587" class="st1" cx="363" cy="704.2" r="5"/>
		<circle id="tweetID-4626" class="st0" cx="363" cy="314.2" r="5"/>
		<circle id="tweetID-4631" class="st0" cx="363" cy="589.2" r="5"/>
		<circle id="tweetID-4643" class="st1" cx="363" cy="622.2" r="5"/>
		<circle id="tweetID-4650" class="st1" cx="363" cy="666.2" r="5"/>
		<circle id="tweetID-4660" class="st2" cx="363" cy="706.2" r="5"/>
		<circle id="tweetID-4663" class="st2" cx="363" cy="706.2" r="5"/>
		<circle id="tweetID-4671" class="st1" cx="363" cy="688.2" r="5"/>
		<circle id="tweetID-4674" class="st1" cx="363" cy="647.2" r="5"/>
		<circle id="tweetID-4678" class="st4" cx="363" cy="652.2" r="5"/>
		<circle id="tweetID-4696" class="st1" cx="363" cy="705.2" r="5"/>
		<circle id="tweetID-4702" class="st1" cx="363" cy="612.2" r="5"/>
		<circle id="tweetID-4707" class="st2" cx="363" cy="615.2" r="5"/>
		<circle id="tweetID-4759" class="st0" cx="363" cy="674.2" r="5"/>
		<circle id="tweetID-4770" class="st4" cx="363" cy="669.2" r="5"/>
		<circle id="tweetID-4775" class="st4" cx="363" cy="703.2" r="5"/>
		<circle id="tweetID-4798" class="st1" cx="363" cy="710.2" r="5"/>
		<circle id="tweetID-4841" class="st1" cx="363" cy="670.2" r="5"/>
		<circle id="tweetID-4844" class="st2" cx="363" cy="606.2" r="5"/>
		<circle id="tweetID-4855" class="st0" cx="363" cy="700.2" r="5"/>
		<circle id="tweetID-4865" class="st0" cx="363" cy="661.2" r="5"/>
		<circle id="tweetID-4868" class="st1" cx="363" cy="717.2" r="5"/>
		<circle id="tweetID-4874" class="st1" cx="363" cy="720.2" r="5"/>
		<circle id="tweetID-4914" class="st4" cx="363" cy="684.2" r="5"/>
		<circle id="tweetID-4917" class="st1" cx="363" cy="718.2" r="5"/>
		<circle id="tweetID-4930" class="st2" cx="363" cy="717.2" r="5"/>
		<circle id="tweetID-4940" class="st1" cx="381" cy="717.2" r="5"/>
		<circle id="tweetID-4972" class="st1" cx="381" cy="718.2" r="5"/>
		<circle id="tweetID-4988" class="st4" cx="381" cy="638.2" r="5"/>
		<circle id="tweetID-5002" class="st2" cx="381" cy="704.2" r="5"/>
		<circle id="tweetID-5058" class="st1" cx="381" cy="679.2" r="5"/>
		<circle id="tweetID-5061" class="st4" cx="381" cy="648.2" r="5"/>
		<circle id="tweetID-5094" class="st1" cx="381" cy="674.2" r="5"/>
		<circle id="tweetID-5099" class="st1" cx="381" cy="592.2" r="5"/>
		<circle id="tweetID-5103" class="st0" cx="381" cy="630.2" r="5"/>
		<circle id="tweetID-5130" class="st2" cx="381" cy="705.2" r="5"/>
		<circle id="tweetID-5150" class="st1" cx="381" cy="718.2" r="5"/>
		<circle id="tweetID-5168" class="st0" cx="381" cy="692.2" r="5"/>
		<circle id="tweetID-5200" class="st1" cx="381" cy="717.2" r="5"/>
		<circle id="tweetID-5222" class="st1" cx="381" cy="621.2" r="5"/>
		<circle id="tweetID-5256" class="st4" cx="381" cy="674.2" r="5"/>
		<circle id="tweetID-5259" class="st2" cx="381" cy="697.2" r="5"/>
		<circle id="tweetID-5266" class="st0" cx="381" cy="670.2" r="5"/>
		<circle id="tweetID-5267" class="st2" cx="381" cy="637.2" r="5"/>
		<circle id="tweetID-5273" class="st1" cx="381" cy="654.2" r="5"/>
		<circle id="tweetID-5277" class="st0" cx="381" cy="692.2" r="5"/>
		<circle id="tweetID-5280" class="st0" cx="381" cy="658.2" r="5"/>
		<circle id="tweetID-5286" class="st1" cx="381" cy="717.2" r="5"/>
		<circle id="tweetID-5298" class="st4" cx="381" cy="692.2" r="5"/>
		<circle id="tweetID-5338" class="st2" cx="381" cy="706.2" r="5"/>
		<circle id="tweetID-5353" class="st1" cx="381" cy="564.2" r="5"/>
		<circle id="tweetID-5391" class="st1" cx="381" cy="713.2" r="5"/>
		<circle id="tweetID-5392" class="st4" cx="381" cy="635.2" r="5"/>
		<circle id="tweetID-5399" class="st2" cx="381" cy="701.2" r="5"/>
		<circle id="tweetID-5428" class="st4" cx="381" cy="678.2" r="5"/>
		<circle id="tweetID-5432" class="st1" cx="381" cy="612.2" r="5"/>
		<circle id="tweetID-5438" class="st1" cx="381" cy="714.2" r="5"/>
		<circle id="tweetID-5457" class="st1" cx="381" cy="720.2" r="5"/>
		<circle id="tweetID-5464" class="st1" cx="381" cy="659.2" r="5"/>
		<circle id="tweetID-5482" class="st2" cx="381" cy="648.2" r="5"/>
		<circle id="tweetID-5503" class="st1" cx="381" cy="651.2" r="5"/>
		<circle id="tweetID-5520" class="st1" cx="381" cy="659.2" r="5"/>
		<circle id="tweetID-5530" class="st2" cx="381" cy="718.2" r="5"/>
		<circle id="tweetID-5540" class="st1" cx="381" cy="651.2" r="5"/>
		<circle id="tweetID-5543" class="st1" cx="381" cy="713.2" r="5"/>
		<circle id="tweetID-5547" class="st2" cx="381" cy="707.2" r="5"/>
		<circle id="tweetID-5562" class="st4" cx="381" cy="538.2" r="5"/>
		<circle id="tweetID-5574" class="st2" cx="381" cy="685.2" r="5"/>
		<circle id="tweetID-5603" class="st1" cx="381" cy="720.2" r="5"/>
		<circle id="tweetID-5606" class="st4" cx="381" cy="619.2" r="5"/>
		<circle id="tweetID-5616" class="st2" cx="381" cy="713.2" r="5"/>
		<circle id="tweetID-5623" class="st1" cx="381" cy="720.2" r="5"/>
		<circle id="tweetID-5637" class="st1" cx="381" cy="643.2" r="5"/>
		<circle id="tweetID-5665" class="st1" cx="381" cy="712.2" r="5"/>
		<circle id="tweetID-5677" class="st2" cx="381" cy="691.2" r="5"/>
		<circle id="tweetID-5682" class="st1" cx="381" cy="708.2" r="5"/>
		<circle id="tweetID-5690" class="st4" cx="381" cy="720.2" r="5"/>
		<circle id="tweetID-5692" class="st4" cx="381" cy="645.2" r="5"/>
		<circle id="tweetID-5719" class="st1" cx="381" cy="563.2" r="5"/>
		<circle id="tweetID-5726" class="st1" cx="381" cy="713.2" r="5"/>
		<circle id="tweetID-5728" class="st4" cx="381" cy="649.2" r="5"/>
		<circle id="tweetID-5730" class="st1" cx="381" cy="629.2" r="5"/>
		<circle id="tweetID-5758" class="st1" cx="381" cy="629.2" r="5"/>
		<circle id="tweetID-5785" class="st1" cx="381" cy="599.2" r="5"/>
		<circle id="tweetID-5788" class="st1" cx="381" cy="713.2" r="5"/>
		<circle id="tweetID-5805" class="st1" cx="381" cy="714.2" r="5"/>
		<circle id="tweetID-5808" class="st0" cx="381" cy="562.2" r="5"/>
		<circle id="tweetID-5819" class="st2" cx="399" cy="710.2" r="5"/>
		<circle id="tweetID-5853" class="st2" cx="399" cy="698.2" r="5"/>
		<circle id="tweetID-5872" class="st1" cx="399" cy="718.2" r="5"/>
		<circle id="tweetID-5880" class="st4" cx="399" cy="683.2" r="5"/>
		<circle id="tweetID-5881" class="st1" cx="399" cy="708.2" r="5"/>
		<circle id="tweetID-5895" class="st1" cx="399" cy="720.2" r="5"/>
		<circle id="tweetID-5898" class="st4" cx="399" cy="704.2" r="5"/>
		<circle id="tweetID-5939" class="st4" cx="399" cy="645.2" r="5"/>
		<circle id="tweetID-5959" class="st1" cx="399" cy="702.2" r="5"/>
		<circle id="tweetID-5960" class="st4" cx="399" cy="680.2" r="5"/>
		<circle id="tweetID-5963" class="st0" cx="399" cy="665.2" r="5"/>
		<circle id="tweetID-5971" class="st4" cx="399" cy="693.2" r="5"/>
		<circle id="tweetID-5999" class="st1" cx="399" cy="717.2" r="5"/>
		<circle id="tweetID-6002" class="st1" cx="399" cy="718.2" r="5"/>
		<circle id="tweetID-6060" class="st4" cx="399" cy="697.2" r="5"/>
		<circle id="tweetID-6066" class="st1" cx="399" cy="666.2" r="5"/>
		<circle id="tweetID-6073" class="st1" cx="399" cy="587.2" r="5"/>
		<circle id="tweetID-6095" class="st4" cx="399" cy="679.2" r="5"/>
		<circle id="tweetID-6100" class="st2" cx="399" cy="678.2" r="5"/>
		<circle id="tweetID-6103" class="st1" cx="399" cy="679.2" r="5"/>
		<circle id="tweetID-6106" class="st0" cx="399" cy="541.2" r="5"/>
		<circle id="tweetID-6144" class="st4" cx="399" cy="667.2" r="5"/>
		<circle id="tweetID-6146" class="st4" cx="399" cy="660.2" r="5"/>
		<circle id="tweetID-6223" class="st4" cx="399" cy="663.2" r="5"/>
		<circle id="tweetID-6282" class="st4" cx="399" cy="690.2" r="5"/>
		<circle id="tweetID-6305" class="st1" cx="399" cy="524.2" r="5"/>
		<circle id="tweetID-6307" class="st4" cx="399" cy="683.2" r="5"/>
		<circle id="tweetID-6308" class="st1" cx="399" cy="705.2" r="5"/>
		<circle id="tweetID-6317" class="st1" cx="399" cy="674.2" r="5"/>
		<circle id="tweetID-6354" class="st2" cx="399" cy="707.2" r="5"/>
		<circle id="tweetID-6372" class="st2" cx="399" cy="696.2" r="5"/>
		<circle id="tweetID-6380" class="st1" cx="399" cy="664.2" r="5"/>
		<circle id="tweetID-6393" class="st4" cx="399" cy="693.2" r="5"/>
		<circle id="tweetID-6430" class="st1" cx="399" cy="532.2" r="5"/>
		<circle id="tweetID-6503" class="st2" cx="399" cy="714.2" r="5"/>
		<circle id="tweetID-6513" class="st0" cx="399" cy="713.2" r="5"/>
		<circle id="tweetID-6523" class="st4" cx="399" cy="614.2" r="5"/>
		<circle id="tweetID-6531" class="st4" cx="399" cy="689.2" r="5"/>
		<circle id="tweetID-6558" class="st2" cx="399" cy="718.2" r="5"/>
		<circle id="tweetID-6562" class="st1" cx="399" cy="559.2" r="5"/>
		<circle id="tweetID-6566" class="st2" cx="399" cy="691.2" r="5"/>
		<circle id="tweetID-6576" class="st2" cx="399" cy="703.2" r="5"/>
		<circle id="tweetID-6582" class="st2" cx="399" cy="673.2" r="5"/>
		<circle id="tweetID-6584" class="st1" cx="399" cy="720.2" r="5"/>
		<circle id="tweetID-6608" class="st2" cx="417" cy="703.2" r="5"/>
		<circle id="tweetID-6616" class="st1" cx="417" cy="669.2" r="5"/>
		<circle id="tweetID-6645" class="st1" cx="417" cy="671.2" r="5"/>
		<circle id="tweetID-6654" class="st1" cx="417" cy="647.2" r="5"/>
		<circle id="tweetID-6664" class="st2" cx="417" cy="708.2" r="5"/>
		<circle id="tweetID-6666" class="st4" cx="417" cy="629.2" r="5"/>
		<circle id="tweetID-6672" class="st1" cx="417" cy="638.2" r="5"/>
		<circle id="tweetID-6735" class="st2" cx="417" cy="710.2" r="5"/>
		<circle id="tweetID-6742" class="st2" cx="417" cy="695.2" r="5"/>
		<circle id="tweetID-6758" class="st1" cx="417" cy="630.2" r="5"/>
		<circle id="tweetID-6778" class="st1" cx="417" cy="720.2" r="5"/>
		<circle id="tweetID-6795" class="st2" cx="417" cy="720.2" r="5"/>
		<circle id="tweetID-6805" class="st1" cx="417" cy="661.2" r="5"/>
		<circle id="tweetID-6824" class="st2" cx="417" cy="706.2" r="5"/>
		<circle id="tweetID-6880" class="st1" cx="417" cy="653.2" r="5"/>
		<circle id="tweetID-6887" class="st1" cx="417" cy="670.2" r="5"/>
		<circle id="tweetID-6897" class="st1" cx="417" cy="571.2" r="5"/>
		<circle id="tweetID-6933" class="st1" cx="417" cy="665.2" r="5"/>
		<circle id="tweetID-6944" class="st1" cx="417" cy="656.2" r="5"/>
		<circle id="tweetID-6954" class="st1" cx="417" cy="650.2" r="5"/>
		<circle id="tweetID-6957" class="st4" cx="417" cy="659.2" r="5"/>
		<circle id="tweetID-6966" class="st1" cx="417" cy="720.2" r="5"/>
		<circle id="tweetID-6971" class="st4" cx="417" cy="674.2" r="5"/>
		<circle id="tweetID-6973" class="st4" cx="417" cy="689.2" r="5"/>
		<circle id="tweetID-6986" class="st4" cx="417" cy="656.2" r="5"/>
		<circle id="tweetID-6987" class="st4" cx="417" cy="684.2" r="5"/>
		<circle id="tweetID-7000" class="st4" cx="417" cy="683.2" r="5"/>
		<circle id="tweetID-7002" class="st4" cx="417" cy="685.2" r="5"/>
		<circle id="tweetID-7013" class="st4" cx="417" cy="689.2" r="5"/>
		<circle id="tweetID-7035" class="st1" cx="417" cy="653.2" r="5"/>
		<circle id="tweetID-7041" class="st4" cx="417" cy="705.2" r="5"/>
		<circle id="tweetID-7070" class="st2" cx="417" cy="711.2" r="5"/>
		<circle id="tweetID-7076" class="st1" cx="417" cy="662.2" r="5"/>
		<circle id="tweetID-7089" class="st1" cx="417" cy="691.2" r="5"/>
		<circle id="tweetID-7099" class="st1" cx="417" cy="682.2" r="5"/>
		<circle id="tweetID-7105" class="st2" cx="417" cy="715.2" r="5"/>
		<circle id="tweetID-7136" class="st1" cx="417" cy="674.2" r="5"/>
		<circle id="tweetID-7159" class="st1" cx="435" cy="720.2" r="5"/>
		<circle id="tweetID-7197" class="st0" cx="435" cy="543.2" r="5"/>
		<circle id="tweetID-7213" class="st2" cx="435" cy="710.2" r="5"/>
		<circle id="tweetID-7238" class="st1" cx="435" cy="597.2" r="5"/>
		<circle id="tweetID-7256" class="st1" cx="435" cy="720.2" r="5"/>
		<circle id="tweetID-7262" class="st4" cx="435" cy="695.2" r="5"/>
		<circle id="tweetID-7265" class="st1" cx="435" cy="718.2" r="5"/>
		<circle id="tweetID-7318" class="st1" cx="435" cy="693.2" r="5"/>
		<circle id="tweetID-7330" class="st1" cx="435" cy="674.2" r="5"/>
		<circle id="tweetID-7334" class="st1" cx="435" cy="685.2" r="5"/>
		<circle id="tweetID-7344" class="st1" cx="435" cy="694.2" r="5"/>
		<circle id="tweetID-7352" class="st1" cx="435" cy="686.2" r="5"/>
		<circle id="tweetID-7370" class="st1" cx="435" cy="685.2" r="5"/>
		<circle id="tweetID-7372" class="st1" cx="435" cy="681.2" r="5"/>
		<circle id="tweetID-7416" class="st1" cx="435" cy="686.2" r="5"/>
		<circle id="tweetID-7426" class="st1" cx="435" cy="681.2" r="5"/>
		<circle id="tweetID-7438" class="st1" cx="435" cy="684.2" r="5"/>
		<circle id="tweetID-7446" class="st1" cx="435" cy="688.2" r="5"/>
		<circle id="tweetID-7450" class="st1" cx="435" cy="696.2" r="5"/>
		<circle id="tweetID-7454" class="st1" cx="435" cy="720.2" r="5"/>
		<circle id="tweetID-7457" class="st2" cx="435" cy="715.2" r="5"/>
		<circle id="tweetID-7462" class="st1" cx="435" cy="688.2" r="5"/>
		<circle id="tweetID-7466" class="st1" cx="435" cy="690.2" r="5"/>
		<circle id="tweetID-7483" class="st4" cx="435" cy="659.2" r="5"/>
		<circle id="tweetID-7488" class="st1" cx="435" cy="677.2" r="5"/>
		<circle id="tweetID-7507" class="st1" cx="435" cy="693.2" r="5"/>
		<circle id="tweetID-7512" class="st1" cx="435" cy="692.2" r="5"/>
		<circle id="tweetID-7536" class="st1" cx="435" cy="692.2" r="5"/>
		<circle id="tweetID-7559" class="st2" cx="453" cy="698.2" r="5"/>
		<circle id="tweetID-7565" class="st4" cx="453" cy="688.2" r="5"/>
		<circle id="tweetID-7615" class="st1" cx="453" cy="693.2" r="5"/>
		<circle id="tweetID-7641" class="st4" cx="453" cy="709.2" r="5"/>
		<circle id="tweetID-7646" class="st1" cx="453" cy="690.2" r="5"/>
		<circle id="tweetID-7652" class="st1" cx="453" cy="705.2" r="5"/>
		<circle id="tweetID-7656" class="st4" cx="453" cy="696.2" r="5"/>
		<circle id="tweetID-7657" class="st1" cx="453" cy="699.2" r="5"/>
		<circle id="tweetID-7831" class="st1" cx="453" cy="718.2" r="5"/>
		<circle id="tweetID-7841" class="st1" cx="453" cy="720.2" r="5"/>
		<circle id="tweetID-7893" class="st4" cx="471" cy="654.2" r="5"/>
		<circle id="tweetID-7915" class="st4" cx="471" cy="682.2" r="5"/>
		<circle id="tweetID-7934" class="st1" cx="471" cy="645.2" r="5"/>
		<circle id="tweetID-7939" class="st1" cx="471" cy="638.2" r="5"/>
		<circle id="tweetID-7972" class="st4" cx="471" cy="636.2" r="5"/>
		<circle id="tweetID-7981" class="st1" cx="471" cy="673.2" r="5"/>
		<circle id="tweetID-7986" class="st0" cx="471" cy="587.2" r="5"/>
		<circle id="tweetID-8068" class="st4" cx="471" cy="665.2" r="5"/>
		<circle id="tweetID-8086" class="st4" cx="471" cy="695.2" r="5"/>
		<circle id="tweetID-8140" class="st4" cx="471" cy="682.2" r="5"/>
		<circle id="tweetID-8160" class="st4" cx="471" cy="709.2" r="5"/>
		<circle id="tweetID-8170" class="st2" cx="471" cy="718.2" r="5"/>
		<circle id="tweetID-8259" class="st2" cx="489" cy="669.2" r="5"/>
		<circle id="tweetID-8412" class="st2" cx="489" cy="712.2" r="5"/>
		<circle id="tweetID-8417" class="st0" cx="489" cy="678.2" r="5"/>
		<circle id="tweetID-8573" class="st4" cx="507" cy="706.2" r="5"/>
		<circle id="tweetID-8627" class="st1" cx="507" cy="618.2" r="5"/>
		<circle id="tweetID-8681" class="st3" cx="507" cy="651.2" r="5"/>
		<circle id="tweetID-8720" class="st4" cx="525" cy="696.2" r="5"/>
		<circle id="tweetID-8772" class="st2" cx="525" cy="702.2" r="5"/>
		<circle id="tweetID-8822" class="st1" cx="525" cy="664.2" r="5"/>
		<circle id="tweetID-9128" class="st1" cx="543" cy="720.2" r="5"/>
		<circle id="tweetID-9188" class="st2" cx="543" cy="717.2" r="5"/>
		<circle id="tweetID-9232" class="st4" cx="543" cy="692.2" r="5"/>
		<circle id="tweetID-9332" class="st1" cx="561" cy="679.2" r="5"/>
		<circle id="tweetID-9358" class="st1" cx="561" cy="691.2" r="5"/>
		<circle id="tweetID-9370" class="st1" cx="561" cy="695.2" r="5"/>
		<circle id="tweetID-9398" class="st1" cx="561" cy="692.2" r="5"/>
		<circle id="tweetID-9410" class="st1" cx="561" cy="692.2" r="5"/>
		<circle id="tweetID-9412" class="st1" cx="561" cy="688.2" r="5"/>
		<circle id="tweetID-9414" class="st1" cx="561" cy="680.2" r="5"/>
		<circle id="tweetID-9420" class="st1" cx="561" cy="688.2" r="5"/>
		<circle id="tweetID-9424" class="st1" cx="561" cy="689.2" r="5"/>
		<circle id="tweetID-9428" class="st1" cx="561" cy="690.2" r="5"/>
		<circle id="tweetID-9432" class="st1" cx="561" cy="690.2" r="5"/>
		<circle id="tweetID-9472" class="st1" cx="561" cy="689.2" r="5"/>
		<circle id="tweetID-9478" class="st1" cx="561" cy="701.2" r="5"/>
		<circle id="tweetID-9486" class="st1" cx="561" cy="695.2" r="5"/>
		<circle id="tweetID-9489" class="st3" cx="561" cy="654.2" r="5"/>
		<circle id="tweetID-9499" class="st1" cx="561" cy="684.2" r="5"/>
		<circle id="tweetID-9571" class="st1" cx="579" cy="701.2" r="5"/>
		<circle id="tweetID-9589" class="st1" cx="579" cy="718.2" r="5"/>
		<circle id="tweetID-9760" class="st1" cx="579" cy="700.2" r="5"/>
		<circle id="tweetID-9788" class="st1" cx="579" cy="696.2" r="5"/>
		<circle id="tweetID-9820" class="st1" cx="579" cy="693.2" r="5"/>
		<circle id="tweetID-9830" class="st4" cx="579" cy="667.2" r="5"/>
		<circle id="tweetID-9857" class="st4" cx="579" cy="678.2" r="5"/>
		<circle id="tweetID-9882" class="st1" cx="579" cy="720.2" r="5"/>
		<circle id="tweetID-9961" class="st1" cx="597" cy="684.2" r="5"/>
		<circle id="tweetID-9997" class="st4" cx="597" cy="713.2" r="5"/>
		<circle id="tweetID-10027" class="st1" cx="597" cy="695.2" r="5"/>
		<circle id="tweetID-10063" class="st4" cx="597" cy="711.2" r="5"/>
		<circle id="tweetID-10082" class="st4" cx="597" cy="686.2" r="5"/>
		<circle id="tweetID-10118" class="st4" cx="597" cy="658.2" r="5"/>
		<circle id="tweetID-10128" class="st4" cx="597" cy="611.2" r="5"/>
		<circle id="tweetID-10131" class="st4" cx="597" cy="678.2" r="5"/>
		<circle id="tweetID-10138" class="st4" cx="597" cy="693.2" r="5"/>
		<circle id="tweetID-10277" class="st1" cx="615" cy="691.2" r="5"/>
		<circle id="tweetID-10280" class="st4" cx="615" cy="681.2" r="5"/>
		<circle id="tweetID-10285" class="st1" cx="615" cy="673.2" r="5"/>
		<circle id="tweetID-10442" class="st1" cx="633" cy="692.2" r="5"/>
		<circle id="tweetID-10447" class="st1" cx="633" cy="689.2" r="5"/>
		<circle id="tweetID-10490" class="st1" cx="633" cy="720.2" r="5"/>
		<circle id="tweetID-10514" class="st4" cx="633" cy="697.2" r="5"/>
		<circle id="tweetID-10608" class="st4" cx="651" cy="703.2" r="5"/>
		<circle id="tweetID-10726" class="st4" cx="651" cy="621.2" r="5"/>
		<circle id="tweetID-10827" class="st4" cx="669" cy="712.2" r="5"/>
		<circle id="tweetID-10952" class="st1" cx="687" cy="704.2" r="5"/>
		<circle id="tweetID-11054" class="st1" cx="687" cy="691.2" r="5"/>
		<circle id="tweetID-11068" class="st1" cx="687" cy="693.2" r="5"/>
		<circle id="tweetID-11080" class="st1" cx="687" cy="666.2" r="5"/>
		<circle id="tweetID-11102" class="st1" cx="687" cy="694.2" r="5"/>
		<circle id="tweetID-11103" class="st1" cx="687" cy="680.2" r="5"/>
		<circle id="tweetID-11104" class="st1" cx="687" cy="694.2" r="5"/>
		<circle id="tweetID-11105" class="st1" cx="687" cy="694.2" r="5"/>
		<circle id="tweetID-11106" class="st1" cx="687" cy="683.2" r="5"/>
		<circle id="tweetID-11109" class="st1" cx="687" cy="686.2" r="5"/>
		<circle id="tweetID-11110" class="st1" cx="687" cy="681.2" r="5"/>
		<circle id="tweetID-11188" class="st1" cx="705" cy="698.2" r="5"/>
		<circle id="tweetID-11264" class="st1" cx="705" cy="693.2" r="5"/>
		<circle id="tweetID-11274" class="st1" cx="705" cy="714.2" r="5"/>
		<circle id="tweetID-11299" class="st2" cx="705" cy="696.2" r="5"/>
		<circle id="tweetID-11519" class="st1" cx="723" cy="675.2" r="5"/>
		<circle id="tweetID-11617" class="st1" cx="741" cy="674.2" r="5"/>
		<circle id="tweetID-11682" class="st4" cx="760" cy="685.2" r="5"/>
		<circle id="tweetID-11800" class="st1" cx="760" cy="638.2" r="5"/>
		<circle id="tweetID-11805" class="st0" cx="760" cy="546.2" r="5"/>
		<circle id="tweetID-11877" class="st1" cx="760" cy="680.2" r="5"/>
		<circle id="tweetID-11923" class="st1" cx="778" cy="656.2" r="5"/>
		<circle id="tweetID-11978" class="st1" cx="778" cy="665.2" r="5"/>
		<circle id="tweetID-12000" class="st1" cx="778" cy="646.2" r="5"/>
		<circle id="tweetID-12020" class="st1" cx="778" cy="718.2" r="5"/>
		<circle id="tweetID-12053" class="st1" cx="778" cy="672.2" r="5"/>
		<circle id="tweetID-12075" class="st4" cx="778" cy="714.2" r="5"/>
		<circle id="tweetID-12100" class="st1" cx="778" cy="624.2" r="5"/>
		<circle id="tweetID-12117" class="st1" cx="778" cy="693.2" r="5"/>
		<circle id="tweetID-12125" class="st4" cx="778" cy="650.2" r="5"/>
		<circle id="tweetID-12191" class="st1" cx="796" cy="706.2" r="5"/>
		<circle id="tweetID-12331" class="st2" cx="796" cy="705.2" r="5"/>
		<circle id="tweetID-12417" class="st1" cx="814" cy="677.2" r="5"/>
		<circle id="tweetID-12517" class="st1" cx="814" cy="677.2" r="5"/>
		<circle id="tweetID-12544" class="st4" cx="814" cy="677.2" r="5"/>
		<circle id="tweetID-12630" class="st2" cx="832" cy="673.2" r="5"/>
		<circle id="tweetID-12745" class="st4" cx="832" cy="697.2" r="5"/>
		<circle id="tweetID-12847" class="st4" cx="832" cy="685.2" r="5"/>
		<circle id="tweetID-12890" class="st1" cx="850" cy="706.2" r="5"/>
		<circle id="tweetID-12901" class="st1" cx="850" cy="632.2" r="5"/>
		<circle id="tweetID-12911" class="st0" cx="850" cy="592.2" r="5"/>
		<circle id="tweetID-12956" class="st0" cx="850" cy="480.2" r="5"/>
		<circle id="tweetID-13016" class="st4" cx="850" cy="674.2" r="5"/>
		<circle id="tweetID-13125" class="st1" cx="868" cy="684.2" r="5"/>
		<circle id="tweetID-13133" class="st1" cx="868" cy="677.2" r="5"/>
		<circle id="tweetID-13179" class="st2" cx="868" cy="709.2" r="5"/>
		<circle id="tweetID-13181" class="st4" cx="868" cy="695.2" r="5"/>
		<circle id="tweetID-13272" class="st1" cx="886" cy="690.2" r="5"/>
		<circle id="tweetID-13276" class="st1" cx="886" cy="720.2" r="5"/>
		<circle id="tweetID-13468" class="st1" cx="904" cy="655.2" r="5"/>
		<circle id="tweetID-13470" class="st1" cx="904" cy="663.2" r="5"/>
		<circle id="tweetID-13482" class="st1" cx="904" cy="684.2" r="5"/>
		<circle id="tweetID-13502" class="st4" cx="904" cy="663.2" r="5"/>
		<circle id="tweetID-13566" class="st1" cx="904" cy="682.2" r="5"/>
		<circle id="tweetID-13576" class="st1" cx="904" cy="698.2" r="5"/>
	</g>
	<g id="travelBanLine">
		<line class="st5" x1="339" y1="740.8" x2="339" y2="134.2"/>
	</g>
	<g transform="translate(0,606.5278116861979)">
		<path class="st6" d="M-123.5,140.2v-5.5H904.3v5.5"/>
		<g transform="translate(5.5,0)">
			<line class="st6" x1="-124" y1="134.2" x2="-124" y2="140.2"/>
			<text transform="matrix(1 0 0 1 -135.123 150.3389)" class="st7 st8">2017</text>
		</g>
		<g transform="translate(131.5,0)">
			<line class="st6" x1="-124" y1="134.2" x2="-124" y2="140.2"/>
			<text transform="matrix(1 0 0 1 -139.0122 150.3389)" class="st7 st8">Jan 08</text>
		</g>
		<g transform="translate(257.5,0)">
			<line class="st6" x1="-124" y1="134.2" x2="-124" y2="140.2"/>
			<text transform="matrix(1 0 0 1 -139.0122 150.3389)" class="st7 st8">Jan 15</text>
		</g>
		<g transform="translate(383.5,0)">
			<line class="st6" x1="-124" y1="134.2" x2="-124" y2="140.2"/>
			<text transform="matrix(1 0 0 1 -139.0122 150.3389)" class="st7 st8">Jan 22</text>
		</g>
		<g transform="translate(509.5,0)">
			<line class="st6" x1="-124" y1="134.2" x2="-124" y2="140.2"/>
			<text transform="matrix(1 0 0 1 -139.0122 150.3389)" class="st7 st8">Jan 29</text>
		</g>
		<g transform="translate(636.5,0)">
			<line class="st6" x1="-124" y1="134.2" x2="-124" y2="140.2"/>
			<text transform="matrix(1 0 0 1 -139.5664 150.3389)" class="st7 st8">Feb 05</text>
		</g>
		<g transform="translate(762.5,0)">
			<line class="st6" x1="-124" y1="134.2" x2="-124" y2="140.2"/>
			<text transform="matrix(1 0 0 1 -139.5664 150.3389)" class="st7 st8">Feb 12</text>
		</g>
		<g transform="translate(888.5,0)">
			<line class="st6" x1="-124" y1="134.2" x2="-124" y2="140.2"/>
			<text transform="matrix(1 0 0 1 -139.5664 150.3389)" class="st7 st8">Feb 19</text>
		</g>
		<g transform="translate(1014.5,0)">
			<line class="st6" x1="-124" y1="134.2" x2="-124" y2="140.2"/>
			<text transform="matrix(1 0 0 1 -139.5664 150.3389)" class="st7 st8">Feb 26</text>
			<text transform="matrix(1 0 0 1 -186.3389 165.5725)" class="st9 st10">Date of 1st RT</text>
		</g>
	</g>
	<g transform="translate(-16.666666666666668,0)">
		<path class="st6" d="M-130,724.6h6.5V134.7h-6.5"/>
		<g transform="translate(0,590.5)">
			<line class="st6" x1="-124" y1="134.2" x2="-130" y2="134.2"/>
			<text transform="matrix(1 0 0 1 -138.5615 137.4388)" class="st7 st8">0</text>
		</g>
		<g transform="translate(0,400.5)">
			<line class="st6" x1="-124" y1="134.2" x2="-130" y2="134.2"/>
			<text transform="matrix(1 0 0 1 -143.5615 137.4388)" class="st7 st8">2k</text>
		</g>
		<g transform="translate(0,322.5)">
			<line class="st6" x1="-124" y1="134.2" x2="-130" y2="134.2"/>
			<text transform="matrix(1 0 0 1 -143.5615 137.4388)" class="st7 st8">4k</text>
		</g>
		<g transform="translate(0,262.5)">
			<line class="st6" x1="-124" y1="134.2" x2="-130" y2="134.2"/>
			<text transform="matrix(1 0 0 1 -143.5615 137.4388)" class="st7 st8">6k</text>
		</g>
		<g transform="translate(0,211.5)">
			<line class="st6" x1="-124" y1="134.2" x2="-130" y2="134.2"/>
			<text transform="matrix(1 0 0 1 -143.5615 137.4388)" class="st7 st8">8k</text>
		</g>
		<g transform="translate(0,166.5)">
			<line class="st6" x1="-124" y1="134.2" x2="-130" y2="134.2"/>
			<text transform="matrix(1 0 0 1 -149.1231 137.4388)" class="st7 st8">10k</text>
		</g>
		<g transform="translate(0,126.5)">
			<line class="st6" x1="-124" y1="134.2" x2="-130" y2="134.2"/>
			<text transform="matrix(1 0 0 1 -149.1231 137.4388)" class="st7 st8">10k</text>
		</g>
		<g transform="translate(0,89.5)">
			<line class="st6" x1="-124" y1="134.2" x2="-130" y2="134.2"/>
			<text transform="matrix(1 0 0 1 -149.1231 137.4388)" class="st7 st8">10k</text>
		</g>
		<g transform="translate(0,54.5)">
			<line class="st6" x1="-124" y1="134.2" x2="-130" y2="134.2"/>
			<text transform="matrix(1 0 0 1 -149.1231 137.4388)" class="st7 st8">20k</text>
		</g>
		<g transform="translate(0,21.5)">
			<line class="st6" x1="-124" y1="134.2" x2="-130" y2="134.2"/>
			<text transform="matrix(1 0 0 1 -149.1231 137.4388)" class="st7 st8">20k</text>
			<text transform="matrix(1 0 0 1 -114 138.0789)" class="st9 st10"># RT&apos;s</text>
		</g>
	</g>
	<g transform="translate(823.3333740234375,32.99305725097656)">
		<g transform="translate(0,13.328125)">
			<g transform="translate(0, 0)">
				<rect x="-124" y="134.2" class="st11" width="30" height="15"/>
				<text transform="matrix(1 0 0 1 -84 146.7388)" class="st7 st10">celebrity</text>
			</g>
			<g transform="translate(0, 25)">
				<rect x="-124" y="134.2" class="st12" width="30" height="15"/>
				<text transform="matrix(1 0 0 1 -84 146.7388)" class="st7 st10">journalist</text>
			</g>
			<g transform="translate(0, 50)">
				<rect x="-124" y="134.2" class="st13" width="30" height="15"/>
				<text transform="matrix(1 0 0 1 -84 146.7388)" class="st7 st10">academic</text>
			</g>
			<g transform="translate(0, 75)">
				<rect x="-124" y="134.2" class="st14" width="30" height="15"/>
				<text transform="matrix(1 0 0 1 -84 146.7388)" class="st7 st10">politician</text>
			</g>
			<g transform="translate(0, 100)">
				<rect x="-124" y="134.2" class="st15" width="30" height="15"/>
				<text transform="matrix(1 0 0 1 -84 146.7388)" class="st7 st10">activist</text>
			</g>
		</g>
		<text transform="matrix(1 0 0 1 -124 134.2388)" class="st9 st10">User Category</text>
	</g>
	<g>
		<g>
			<g transform="translate(463, 85)">
				<g>
					<path class="st16" d="M-124,134.2l-75-49"/>
				</g>
				<g transform="translate(-75, -49)">
					<g transform="translate(-61.546875, -30.989062500000003)">
						<rect x="-124" y="134.2" class="st17" width="62.7" height="28"/>
						<text transform="matrix(1 0 0 1 -124 158.4997)" class="st18 st7 st10">Jan 27th</text>
						<text transform="matrix(1 0 0 1 -124 143.8389)" class="st18 st9 st10">Travel Ban</text>
					</g>
				</g>
			</g>
		</g>
	</g>
</g>
</svg>
