<?xml version="1.0" encoding="utf-8"?>
<!-- Generator: Adobe Illustrator 19.1.1, SVG Export Plug-In . SVG Version: 6.00 Build 0)  -->
<svg version="1.1" id="Layer_1" xmlns="http://www.w3.org/2000/svg" xmlns:xlink="http://www.w3.org/1999/xlink" x="0px" y="0px"
	 viewBox="-62 67.1 1097.8 659.9" style="enable-background:new -62 67.1 1097.8 659.9;" xml:space="preserve">
<style type="text/css">
	.st0{opacity:0.65;fill:#BEBADA;enable-background:new    ;}
	.st1{opacity:0.65;fill:#B3DE69;enable-background:new    ;}
	.st2{opacity:0.65;fill:#8DD3C7;enable-background:new    ;}
	.st3{opacity:0.65;fill:#80B1D3;enable-background:new    ;}
	.st4{opacity:0.65;fill:#FB8072;enable-background:new    ;}
	.st5{fill:none;stroke:#333333;stroke-dasharray:4,4;}
	.st6{fill:none;stroke:#000000;}
	.st7{font-family:'ArialMT';}
	.st8{font-size:10px;}
	.st9{font-family:'Arial-BoldMT';}
	.st10{font-size:12px;}
	.st11{fill:#BEBADA;}
	.st12{fill:#B3DE69;}
	.st13{fill:#8DD3C7;}
	.st14{fill:#80B1D3;}
	.st15{fill:#FB8072;}
	.st16{fill:none;stroke:#333333;}
	.st17{fill:none;}
	.st18{fill:#333333;}
</style>
<g transform="translate(50,20)">
	<g>
		<circle id="tweetID-824" class="st0" cx="-62" cy="651.1" r="5"/>
		<circle id="tweetID-1817" class="st1" cx="100" cy="629.1" r="5"/>
		<circle id="tweetID-2101" class="st1" cx="136" cy="653.1" r="5"/>
		<circle id="tweetID-2661" class="st2" cx="245" cy="642.1" r="5"/>
		<circle id="tweetID-3009" class="st1" cx="317" cy="646.1" r="5"/>
		<circle id="tweetID-3366" class="st3" cx="371" cy="653.1" r="5"/>
		<circle id="tweetID-3773" class="st1" cx="389" cy="653.1" r="5"/>
		<circle id="tweetID-3938" class="st1" cx="407" cy="651.1" r="5"/>
		<circle id="tweetID-3944" class="st1" cx="407" cy="585.1" r="5"/>
		<circle id="tweetID-3952" class="st4" cx="407" cy="463.1" r="5"/>
		<circle id="tweetID-3953" class="st2" cx="407" cy="622.1" r="5"/>
		<circle id="tweetID-3997" class="st4" cx="407" cy="594.1" r="5"/>
		<circle id="tweetID-4003" class="st4" cx="407" cy="610.1" r="5"/>
		<circle id="tweetID-4056" class="st4" cx="407" cy="370.1" r="5"/>
		<circle id="tweetID-4067" class="st4" cx="407" cy="623.1" r="5"/>
		<circle id="tweetID-4068" class="st0" cx="407" cy="550.1" r="5"/>
		<circle id="tweetID-4078" class="st1" cx="407" cy="561.1" r="5"/>
		<circle id="tweetID-4086" class="st2" cx="407" cy="651.1" r="5"/>
		<circle id="tweetID-4118" class="st2" cx="407" cy="646.1" r="5"/>
		<circle id="tweetID-4127" class="st2" cx="407" cy="648.1" r="5"/>
		<circle id="tweetID-4140" class="st0" cx="407" cy="582.1" r="5"/>
		<circle id="tweetID-4142" class="st0" cx="407" cy="258.1" r="5"/>
		<circle id="tweetID-4167" class="st4" cx="407" cy="614.1" r="5"/>
		<circle id="tweetID-4169" class="st2" cx="407" cy="258.1" r="5"/>
		<circle id="tweetID-4179" class="st4" cx="407" cy="637.1" r="5"/>
		<circle id="tweetID-4236" class="st4" cx="407" cy="646.1" r="5"/>
		<circle id="tweetID-4238" class="st4" cx="407" cy="618.1" r="5"/>
		<circle id="tweetID-4241" class="st2" cx="407" cy="650.1" r="5"/>
		<circle id="tweetID-4249" class="st2" cx="407" cy="603.1" r="5"/>
		<circle id="tweetID-4263" class="st1" cx="425" cy="594.1" r="5"/>
		<circle id="tweetID-4267" class="st4" cx="425" cy="480.1" r="5"/>
		<circle id="tweetID-4270" class="st0" cx="425" cy="574.1" r="5"/>
		<circle id="tweetID-4282" class="st2" cx="425" cy="371.1" r="5"/>
		<circle id="tweetID-4284" class="st1" cx="425" cy="224.1" r="5"/>
		<circle id="tweetID-4294" class="st1" cx="425" cy="576.1" r="5"/>
		<circle id="tweetID-4295" class="st1" cx="425" cy="642.1" r="5"/>
		<circle id="tweetID-4303" class="st1" cx="425" cy="640.1" r="5"/>
		<circle id="tweetID-4319" class="st1" cx="425" cy="581.1" r="5"/>
		<circle id="tweetID-4334" class="st0" cx="425" cy="651.1" r="5"/>
		<circle id="tweetID-4338" class="st4" cx="425" cy="614.1" r="5"/>
		<circle id="tweetID-4346" class="st2" cx="425" cy="626.1" r="5"/>
		<circle id="tweetID-4351" class="st1" cx="425" cy="653.1" r="5"/>
		<circle id="tweetID-4371" class="st1" cx="425" cy="601.1" r="5"/>
		<circle id="tweetID-4372" class="st2" cx="425" cy="445.1" r="5"/>
		<circle id="tweetID-4389" class="st3" cx="425" cy="139.1" r="5"/>
		<circle id="tweetID-4394" class="st0" cx="425" cy="587.1" r="5"/>
		<circle id="tweetID-4398" class="st3" cx="425" cy="246.1" r="5"/>
		<circle id="tweetID-4402" class="st4" cx="425" cy="473.1" r="5"/>
		<circle id="tweetID-4414" class="st4" cx="425" cy="615.1" r="5"/>
		<circle id="tweetID-4415" class="st1" cx="425" cy="653.1" r="5"/>
		<circle id="tweetID-4419" class="st2" cx="425" cy="646.1" r="5"/>
		<circle id="tweetID-4421" class="st4" cx="425" cy="619.1" r="5"/>
		<circle id="tweetID-4422" class="st1" cx="425" cy="67.1" r="5"/>
		<circle id="tweetID-4430" class="st1" cx="425" cy="653.1" r="5"/>
		<circle id="tweetID-4441" class="st1" cx="425" cy="653.1" r="5"/>
		<circle id="tweetID-4473" class="st1" cx="425" cy="645.1" r="5"/>
		<circle id="tweetID-4478" class="st1" cx="425" cy="651.1" r="5"/>
		<circle id="tweetID-4504" class="st1" cx="425" cy="651.1" r="5"/>
		<circle id="tweetID-4506" class="st1" cx="425" cy="647.1" r="5"/>
		<circle id="tweetID-4508" class="st2" cx="425" cy="639.1" r="5"/>
		<circle id="tweetID-4512" class="st1" cx="425" cy="650.1" r="5"/>
		<circle id="tweetID-4525" class="st4" cx="425" cy="611.1" r="5"/>
		<circle id="tweetID-4556" class="st0" cx="425" cy="202.1" r="5"/>
		<circle id="tweetID-4565" class="st0" cx="425" cy="623.1" r="5"/>
		<circle id="tweetID-4576" class="st4" cx="425" cy="619.1" r="5"/>
		<circle id="tweetID-4587" class="st1" cx="425" cy="637.1" r="5"/>
		<circle id="tweetID-4626" class="st0" cx="425" cy="247.1" r="5"/>
		<circle id="tweetID-4631" class="st0" cx="425" cy="522.1" r="5"/>
		<circle id="tweetID-4643" class="st1" cx="425" cy="555.1" r="5"/>
		<circle id="tweetID-4650" class="st1" cx="425" cy="599.1" r="5"/>
		<circle id="tweetID-4660" class="st2" cx="425" cy="639.1" r="5"/>
		<circle id="tweetID-4663" class="st2" cx="425" cy="639.1" r="5"/>
		<circle id="tweetID-4671" class="st1" cx="425" cy="621.1" r="5"/>
		<circle id="tweetID-4674" class="st1" cx="425" cy="580.1" r="5"/>
		<circle id="tweetID-4678" class="st4" cx="425" cy="585.1" r="5"/>
		<circle id="tweetID-4696" class="st1" cx="425" cy="638.1" r="5"/>
		<circle id="tweetID-4702" class="st1" cx="425" cy="545.1" r="5"/>
		<circle id="tweetID-4707" class="st2" cx="425" cy="548.1" r="5"/>
		<circle id="tweetID-4759" class="st0" cx="425" cy="607.1" r="5"/>
		<circle id="tweetID-4770" class="st4" cx="425" cy="602.1" r="5"/>
		<circle id="tweetID-4775" class="st4" cx="425" cy="636.1" r="5"/>
		<circle id="tweetID-4798" class="st1" cx="425" cy="643.1" r="5"/>
		<circle id="tweetID-4841" class="st1" cx="425" cy="603.1" r="5"/>
		<circle id="tweetID-4844" class="st2" cx="425" cy="539.1" r="5"/>
		<circle id="tweetID-4855" class="st0" cx="425" cy="633.1" r="5"/>
		<circle id="tweetID-4865" class="st0" cx="425" cy="594.1" r="5"/>
		<circle id="tweetID-4868" class="st1" cx="425" cy="650.1" r="5"/>
		<circle id="tweetID-4874" class="st1" cx="425" cy="653.1" r="5"/>
		<circle id="tweetID-4914" class="st4" cx="425" cy="617.1" r="5"/>
		<circle id="tweetID-4917" class="st1" cx="425" cy="651.1" r="5"/>
		<circle id="tweetID-4930" class="st2" cx="425" cy="650.1" r="5"/>
		<circle id="tweetID-4940" class="st1" cx="443" cy="650.1" r="5"/>
		<circle id="tweetID-4972" class="st1" cx="443" cy="651.1" r="5"/>
		<circle id="tweetID-4988" class="st4" cx="443" cy="571.1" r="5"/>
		<circle id="tweetID-5002" class="st2" cx="443" cy="637.1" r="5"/>
		<circle id="tweetID-5058" class="st1" cx="443" cy="612.1" r="5"/>
		<circle id="tweetID-5061" class="st4" cx="443" cy="581.1" r="5"/>
		<circle id="tweetID-5094" class="st1" cx="443" cy="607.1" r="5"/>
		<circle id="tweetID-5099" class="st1" cx="443" cy="525.1" r="5"/>
		<circle id="tweetID-5103" class="st0" cx="443" cy="563.1" r="5"/>
		<circle id="tweetID-5130" class="st2" cx="443" cy="638.1" r="5"/>
		<circle id="tweetID-5150" class="st1" cx="443" cy="651.1" r="5"/>
		<circle id="tweetID-5168" class="st0" cx="443" cy="625.1" r="5"/>
		<circle id="tweetID-5200" class="st1" cx="443" cy="650.1" r="5"/>
		<circle id="tweetID-5222" class="st1" cx="443" cy="554.1" r="5"/>
		<circle id="tweetID-5256" class="st4" cx="443" cy="607.1" r="5"/>
		<circle id="tweetID-5259" class="st2" cx="443" cy="630.1" r="5"/>
		<circle id="tweetID-5266" class="st0" cx="443" cy="603.1" r="5"/>
		<circle id="tweetID-5267" class="st2" cx="443" cy="570.1" r="5"/>
		<circle id="tweetID-5273" class="st1" cx="443" cy="587.1" r="5"/>
		<circle id="tweetID-5277" class="st0" cx="443" cy="625.1" r="5"/>
		<circle id="tweetID-5280" class="st0" cx="443" cy="591.1" r="5"/>
		<circle id="tweetID-5286" class="st1" cx="443" cy="650.1" r="5"/>
		<circle id="tweetID-5298" class="st4" cx="443" cy="625.1" r="5"/>
		<circle id="tweetID-5338" class="st2" cx="443" cy="639.1" r="5"/>
		<circle id="tweetID-5353" class="st1" cx="443" cy="497.1" r="5"/>
		<circle id="tweetID-5391" class="st1" cx="443" cy="646.1" r="5"/>
		<circle id="tweetID-5392" class="st4" cx="443" cy="568.1" r="5"/>
		<circle id="tweetID-5399" class="st2" cx="443" cy="634.1" r="5"/>
		<circle id="tweetID-5428" class="st4" cx="443" cy="611.1" r="5"/>
		<circle id="tweetID-5432" class="st1" cx="443" cy="545.1" r="5"/>
		<circle id="tweetID-5438" class="st1" cx="443" cy="647.1" r="5"/>
		<circle id="tweetID-5457" class="st1" cx="443" cy="653.1" r="5"/>
		<circle id="tweetID-5464" class="st1" cx="443" cy="592.1" r="5"/>
		<circle id="tweetID-5482" class="st2" cx="443" cy="581.1" r="5"/>
		<circle id="tweetID-5503" class="st1" cx="443" cy="584.1" r="5"/>
		<circle id="tweetID-5520" class="st1" cx="443" cy="592.1" r="5"/>
		<circle id="tweetID-5530" class="st2" cx="443" cy="651.1" r="5"/>
		<circle id="tweetID-5540" class="st1" cx="443" cy="584.1" r="5"/>
		<circle id="tweetID-5543" class="st1" cx="443" cy="646.1" r="5"/>
		<circle id="tweetID-5547" class="st2" cx="443" cy="640.1" r="5"/>
		<circle id="tweetID-5562" class="st4" cx="443" cy="471.1" r="5"/>
		<circle id="tweetID-5574" class="st2" cx="443" cy="618.1" r="5"/>
		<circle id="tweetID-5603" class="st1" cx="443" cy="653.1" r="5"/>
		<circle id="tweetID-5606" class="st4" cx="443" cy="552.1" r="5"/>
		<circle id="tweetID-5616" class="st2" cx="443" cy="646.1" r="5"/>
		<circle id="tweetID-5623" class="st1" cx="443" cy="653.1" r="5"/>
		<circle id="tweetID-5637" class="st1" cx="443" cy="576.1" r="5"/>
		<circle id="tweetID-5665" class="st1" cx="443" cy="645.1" r="5"/>
		<circle id="tweetID-5677" class="st2" cx="443" cy="624.1" r="5"/>
		<circle id="tweetID-5682" class="st1" cx="443" cy="641.1" r="5"/>
		<circle id="tweetID-5690" class="st4" cx="443" cy="653.1" r="5"/>
		<circle id="tweetID-5692" class="st4" cx="443" cy="578.1" r="5"/>
		<circle id="tweetID-5719" class="st1" cx="443" cy="496.1" r="5"/>
		<circle id="tweetID-5726" class="st1" cx="443" cy="646.1" r="5"/>
		<circle id="tweetID-5728" class="st4" cx="443" cy="582.1" r="5"/>
		<circle id="tweetID-5730" class="st1" cx="443" cy="562.1" r="5"/>
		<circle id="tweetID-5758" class="st1" cx="443" cy="562.1" r="5"/>
		<circle id="tweetID-5785" class="st1" cx="443" cy="532.1" r="5"/>
		<circle id="tweetID-5788" class="st1" cx="443" cy="646.1" r="5"/>
		<circle id="tweetID-5805" class="st1" cx="443" cy="647.1" r="5"/>
		<circle id="tweetID-5808" class="st0" cx="443" cy="495.1" r="5"/>
		<circle id="tweetID-5819" class="st2" cx="461" cy="643.1" r="5"/>
		<circle id="tweetID-5853" class="st2" cx="461" cy="631.1" r="5"/>
		<circle id="tweetID-5872" class="st1" cx="461" cy="651.1" r="5"/>
		<circle id="tweetID-5880" class="st4" cx="461" cy="616.1" r="5"/>
		<circle id="tweetID-5881" class="st1" cx="461" cy="641.1" r="5"/>
		<circle id="tweetID-5895" class="st1" cx="461" cy="653.1" r="5"/>
		<circle id="tweetID-5898" class="st4" cx="461" cy="637.1" r="5"/>
		<circle id="tweetID-5939" class="st4" cx="461" cy="578.1" r="5"/>
		<circle id="tweetID-5959" class="st1" cx="461" cy="635.1" r="5"/>
		<circle id="tweetID-5960" class="st4" cx="461" cy="613.1" r="5"/>
		<circle id="tweetID-5963" class="st0" cx="461" cy="598.1" r="5"/>
		<circle id="tweetID-5971" class="st4" cx="461" cy="626.1" r="5"/>
		<circle id="tweetID-5999" class="st1" cx="461" cy="650.1" r="5"/>
		<circle id="tweetID-6002" class="st1" cx="461" cy="651.1" r="5"/>
		<circle id="tweetID-6060" class="st4" cx="461" cy="630.1" r="5"/>
		<circle id="tweetID-6066" class="st1" cx="461" cy="599.1" r="5"/>
		<circle id="tweetID-6073" class="st1" cx="461" cy="520.1" r="5"/>
		<circle id="tweetID-6095" class="st4" cx="461" cy="612.1" r="5"/>
		<circle id="tweetID-6100" class="st2" cx="461" cy="611.1" r="5"/>
		<circle id="tweetID-6103" class="st1" cx="461" cy="612.1" r="5"/>
		<circle id="tweetID-6106" class="st0" cx="461" cy="474.1" r="5"/>
		<circle id="tweetID-6144" class="st4" cx="461" cy="600.1" r="5"/>
		<circle id="tweetID-6146" class="st4" cx="461" cy="593.1" r="5"/>
		<circle id="tweetID-6223" class="st4" cx="461" cy="596.1" r="5"/>
		<circle id="tweetID-6282" class="st4" cx="461" cy="623.1" r="5"/>
		<circle id="tweetID-6305" class="st1" cx="461" cy="457.1" r="5"/>
		<circle id="tweetID-6307" class="st4" cx="461" cy="616.1" r="5"/>
		<circle id="tweetID-6308" class="st1" cx="461" cy="638.1" r="5"/>
		<circle id="tweetID-6317" class="st1" cx="461" cy="607.1" r="5"/>
		<circle id="tweetID-6354" class="st2" cx="461" cy="640.1" r="5"/>
		<circle id="tweetID-6372" class="st2" cx="461" cy="629.1" r="5"/>
		<circle id="tweetID-6380" class="st1" cx="461" cy="597.1" r="5"/>
		<circle id="tweetID-6393" class="st4" cx="461" cy="626.1" r="5"/>
		<circle id="tweetID-6430" class="st1" cx="461" cy="465.1" r="5"/>
		<circle id="tweetID-6503" class="st2" cx="461" cy="647.1" r="5"/>
		<circle id="tweetID-6513" class="st0" cx="461" cy="646.1" r="5"/>
		<circle id="tweetID-6523" class="st4" cx="461" cy="547.1" r="5"/>
		<circle id="tweetID-6531" class="st4" cx="461" cy="622.1" r="5"/>
		<circle id="tweetID-6558" class="st2" cx="461" cy="651.1" r="5"/>
		<circle id="tweetID-6562" class="st1" cx="461" cy="492.1" r="5"/>
		<circle id="tweetID-6566" class="st2" cx="461" cy="624.1" r="5"/>
		<circle id="tweetID-6576" class="st2" cx="461" cy="636.1" r="5"/>
		<circle id="tweetID-6582" class="st2" cx="461" cy="606.1" r="5"/>
		<circle id="tweetID-6584" class="st1" cx="461" cy="653.1" r="5"/>
		<circle id="tweetID-6608" class="st2" cx="479" cy="636.1" r="5"/>
		<circle id="tweetID-6616" class="st1" cx="479" cy="602.1" r="5"/>
		<circle id="tweetID-6645" class="st1" cx="479" cy="604.1" r="5"/>
		<circle id="tweetID-6654" class="st1" cx="479" cy="580.1" r="5"/>
		<circle id="tweetID-6664" class="st2" cx="479" cy="641.1" r="5"/>
		<circle id="tweetID-6666" class="st4" cx="479" cy="562.1" r="5"/>
		<circle id="tweetID-6672" class="st1" cx="479" cy="571.1" r="5"/>
		<circle id="tweetID-6735" class="st2" cx="479" cy="643.1" r="5"/>
		<circle id="tweetID-6742" class="st2" cx="479" cy="628.1" r="5"/>
		<circle id="tweetID-6758" class="st1" cx="479" cy="563.1" r="5"/>
		<circle id="tweetID-6778" class="st1" cx="479" cy="653.1" r="5"/>
		<circle id="tweetID-6795" class="st2" cx="479" cy="653.1" r="5"/>
		<circle id="tweetID-6805" class="st1" cx="479" cy="594.1" r="5"/>
		<circle id="tweetID-6824" class="st2" cx="479" cy="639.1" r="5"/>
		<circle id="tweetID-6880" class="st1" cx="479" cy="586.1" r="5"/>
		<circle id="tweetID-6887" class="st1" cx="479" cy="603.1" r="5"/>
		<circle id="tweetID-6897" class="st1" cx="479" cy="504.1" r="5"/>
		<circle id="tweetID-6933" class="st1" cx="479" cy="598.1" r="5"/>
		<circle id="tweetID-6944" class="st1" cx="479" cy="589.1" r="5"/>
		<circle id="tweetID-6954" class="st1" cx="479" cy="583.1" r="5"/>
		<circle id="tweetID-6957" class="st4" cx="479" cy="592.1" r="5"/>
		<circle id="tweetID-6966" class="st1" cx="479" cy="653.1" r="5"/>
		<circle id="tweetID-6971" class="st4" cx="479" cy="607.1" r="5"/>
		<circle id="tweetID-6973" class="st4" cx="479" cy="622.1" r="5"/>
		<circle id="tweetID-6986" class="st4" cx="479" cy="589.1" r="5"/>
		<circle id="tweetID-6987" class="st4" cx="479" cy="617.1" r="5"/>
		<circle id="tweetID-7000" class="st4" cx="479" cy="616.1" r="5"/>
		<circle id="tweetID-7002" class="st4" cx="479" cy="618.1" r="5"/>
		<circle id="tweetID-7013" class="st4" cx="479" cy="622.1" r="5"/>
		<circle id="tweetID-7035" class="st1" cx="479" cy="586.1" r="5"/>
		<circle id="tweetID-7041" class="st4" cx="479" cy="638.1" r="5"/>
		<circle id="tweetID-7070" class="st2" cx="479" cy="644.1" r="5"/>
		<circle id="tweetID-7076" class="st1" cx="479" cy="595.1" r="5"/>
		<circle id="tweetID-7089" class="st1" cx="479" cy="624.1" r="5"/>
		<circle id="tweetID-7099" class="st1" cx="479" cy="615.1" r="5"/>
		<circle id="tweetID-7105" class="st2" cx="479" cy="648.1" r="5"/>
		<circle id="tweetID-7136" class="st1" cx="479" cy="607.1" r="5"/>
		<circle id="tweetID-7159" class="st1" cx="497" cy="653.1" r="5"/>
		<circle id="tweetID-7197" class="st0" cx="497" cy="476.1" r="5"/>
		<circle id="tweetID-7213" class="st2" cx="497" cy="643.1" r="5"/>
		<circle id="tweetID-7238" class="st1" cx="497" cy="530.1" r="5"/>
		<circle id="tweetID-7256" class="st1" cx="497" cy="653.1" r="5"/>
		<circle id="tweetID-7262" class="st4" cx="497" cy="628.1" r="5"/>
		<circle id="tweetID-7265" class="st1" cx="497" cy="651.1" r="5"/>
		<circle id="tweetID-7318" class="st1" cx="497" cy="626.1" r="5"/>
		<circle id="tweetID-7330" class="st1" cx="497" cy="607.1" r="5"/>
		<circle id="tweetID-7334" class="st1" cx="497" cy="618.1" r="5"/>
		<circle id="tweetID-7344" class="st1" cx="497" cy="627.1" r="5"/>
		<circle id="tweetID-7352" class="st1" cx="497" cy="619.1" r="5"/>
		<circle id="tweetID-7370" class="st1" cx="497" cy="618.1" r="5"/>
		<circle id="tweetID-7372" class="st1" cx="497" cy="614.1" r="5"/>
		<circle id="tweetID-7416" class="st1" cx="497" cy="619.1" r="5"/>
		<circle id="tweetID-7426" class="st1" cx="497" cy="614.1" r="5"/>
		<circle id="tweetID-7438" class="st1" cx="497" cy="617.1" r="5"/>
		<circle id="tweetID-7446" class="st1" cx="497" cy="621.1" r="5"/>
		<circle id="tweetID-7450" class="st1" cx="497" cy="629.1" r="5"/>
		<circle id="tweetID-7454" class="st1" cx="497" cy="653.1" r="5"/>
		<circle id="tweetID-7457" class="st2" cx="497" cy="648.1" r="5"/>
		<circle id="tweetID-7462" class="st1" cx="497" cy="621.1" r="5"/>
		<circle id="tweetID-7466" class="st1" cx="497" cy="623.1" r="5"/>
		<circle id="tweetID-7483" class="st4" cx="497" cy="592.1" r="5"/>
		<circle id="tweetID-7488" class="st1" cx="497" cy="610.1" r="5"/>
		<circle id="tweetID-7507" class="st1" cx="497" cy="626.1" r="5"/>
		<circle id="tweetID-7512" class="st1" cx="497" cy="625.1" r="5"/>
		<circle id="tweetID-7536" class="st1" cx="497" cy="625.1" r="5"/>
		<circle id="tweetID-7559" class="st2" cx="515" cy="631.1" r="5"/>
		<circle id="tweetID-7565" class="st4" cx="515" cy="621.1" r="5"/>
		<circle id="tweetID-7615" class="st1" cx="515" cy="626.1" r="5"/>
		<circle id="tweetID-7641" class="st4" cx="515" cy="642.1" r="5"/>
		<circle id="tweetID-7646" class="st1" cx="515" cy="623.1" r="5"/>
		<circle id="tweetID-7652" class="st1" cx="515" cy="638.1" r="5"/>
		<circle id="tweetID-7656" class="st4" cx="515" cy="629.1" r="5"/>
		<circle id="tweetID-7657" class="st1" cx="515" cy="632.1" r="5"/>
		<circle id="tweetID-7831" class="st1" cx="515" cy="651.1" r="5"/>
		<circle id="tweetID-7841" class="st1" cx="515" cy="653.1" r="5"/>
		<circle id="tweetID-7893" class="st4" cx="533" cy="587.1" r="5"/>
		<circle id="tweetID-7915" class="st4" cx="533" cy="615.1" r="5"/>
		<circle id="tweetID-7934" class="st1" cx="533" cy="578.1" r="5"/>
		<circle id="tweetID-7939" class="st1" cx="533" cy="571.1" r="5"/>
		<circle id="tweetID-7972" class="st4" cx="533" cy="569.1" r="5"/>
		<circle id="tweetID-7981" class="st1" cx="533" cy="606.1" r="5"/>
		<circle id="tweetID-7986" class="st0" cx="533" cy="520.1" r="5"/>
		<circle id="tweetID-8068" class="st4" cx="533" cy="598.1" r="5"/>
		<circle id="tweetID-8086" class="st4" cx="533" cy="628.1" r="5"/>
		<circle id="tweetID-8140" class="st4" cx="533" cy="615.1" r="5"/>
		<circle id="tweetID-8160" class="st4" cx="533" cy="642.1" r="5"/>
		<circle id="tweetID-8170" class="st2" cx="533" cy="651.1" r="5"/>
		<circle id="tweetID-8259" class="st2" cx="551" cy="602.1" r="5"/>
		<circle id="tweetID-8412" class="st2" cx="551" cy="645.1" r="5"/>
		<circle id="tweetID-8417" class="st0" cx="551" cy="611.1" r="5"/>
		<circle id="tweetID-8573" class="st4" cx="569" cy="639.1" r="5"/>
		<circle id="tweetID-8627" class="st1" cx="569" cy="551.1" r="5"/>
		<circle id="tweetID-8681" class="st3" cx="569" cy="584.1" r="5"/>
		<circle id="tweetID-8720" class="st4" cx="587" cy="629.1" r="5"/>
		<circle id="tweetID-8772" class="st2" cx="587" cy="635.1" r="5"/>
		<circle id="tweetID-8822" class="st1" cx="587" cy="597.1" r="5"/>
		<circle id="tweetID-9128" class="st1" cx="605" cy="653.1" r="5"/>
		<circle id="tweetID-9188" class="st2" cx="605" cy="650.1" r="5"/>
		<circle id="tweetID-9232" class="st4" cx="605" cy="625.1" r="5"/>
		<circle id="tweetID-9332" class="st1" cx="623" cy="612.1" r="5"/>
		<circle id="tweetID-9358" class="st1" cx="623" cy="624.1" r="5"/>
		<circle id="tweetID-9370" class="st1" cx="623" cy="628.1" r="5"/>
		<circle id="tweetID-9398" class="st1" cx="623" cy="625.1" r="5"/>
		<circle id="tweetID-9410" class="st1" cx="623" cy="625.1" r="5"/>
		<circle id="tweetID-9412" class="st1" cx="623" cy="621.1" r="5"/>
		<circle id="tweetID-9414" class="st1" cx="623" cy="613.1" r="5"/>
		<circle id="tweetID-9420" class="st1" cx="623" cy="621.1" r="5"/>
		<circle id="tweetID-9424" class="st1" cx="623" cy="622.1" r="5"/>
		<circle id="tweetID-9428" class="st1" cx="623" cy="623.1" r="5"/>
		<circle id="tweetID-9432" class="st1" cx="623" cy="623.1" r="5"/>
		<circle id="tweetID-9472" class="st1" cx="623" cy="622.1" r="5"/>
		<circle id="tweetID-9478" class="st1" cx="623" cy="634.1" r="5"/>
		<circle id="tweetID-9486" class="st1" cx="623" cy="628.1" r="5"/>
		<circle id="tweetID-9489" class="st3" cx="623" cy="587.1" r="5"/>
		<circle id="tweetID-9499" class="st1" cx="623" cy="617.1" r="5"/>
		<circle id="tweetID-9571" class="st1" cx="641" cy="634.1" r="5"/>
		<circle id="tweetID-9589" class="st1" cx="641" cy="651.1" r="5"/>
		<circle id="tweetID-9760" class="st1" cx="641" cy="633.1" r="5"/>
		<circle id="tweetID-9788" class="st1" cx="641" cy="629.1" r="5"/>
		<circle id="tweetID-9820" class="st1" cx="641" cy="626.1" r="5"/>
		<circle id="tweetID-9830" class="st4" cx="641" cy="600.1" r="5"/>
		<circle id="tweetID-9857" class="st4" cx="641" cy="611.1" r="5"/>
		<circle id="tweetID-9882" class="st1" cx="641" cy="653.1" r="5"/>
		<circle id="tweetID-9961" class="st1" cx="659" cy="617.1" r="5"/>
		<circle id="tweetID-9997" class="st4" cx="659" cy="646.1" r="5"/>
		<circle id="tweetID-10027" class="st1" cx="659" cy="628.1" r="5"/>
		<circle id="tweetID-10063" class="st4" cx="659" cy="644.1" r="5"/>
		<circle id="tweetID-10082" class="st4" cx="659" cy="619.1" r="5"/>
		<circle id="tweetID-10118" class="st4" cx="659" cy="591.1" r="5"/>
		<circle id="tweetID-10128" class="st4" cx="659" cy="544.1" r="5"/>
		<circle id="tweetID-10131" class="st4" cx="659" cy="611.1" r="5"/>
		<circle id="tweetID-10138" class="st4" cx="659" cy="626.1" r="5"/>
		<circle id="tweetID-10277" class="st1" cx="677" cy="624.1" r="5"/>
		<circle id="tweetID-10280" class="st4" cx="677" cy="614.1" r="5"/>
		<circle id="tweetID-10285" class="st1" cx="677" cy="606.1" r="5"/>
		<circle id="tweetID-10442" class="st1" cx="695" cy="625.1" r="5"/>
		<circle id="tweetID-10447" class="st1" cx="695" cy="622.1" r="5"/>
		<circle id="tweetID-10490" class="st1" cx="695" cy="653.1" r="5"/>
		<circle id="tweetID-10514" class="st4" cx="695" cy="630.1" r="5"/>
		<circle id="tweetID-10608" class="st4" cx="713" cy="636.1" r="5"/>
		<circle id="tweetID-10726" class="st4" cx="713" cy="554.1" r="5"/>
		<circle id="tweetID-10827" class="st4" cx="731" cy="645.1" r="5"/>
		<circle id="tweetID-10952" class="st1" cx="749" cy="637.1" r="5"/>
		<circle id="tweetID-11054" class="st1" cx="749" cy="624.1" r="5"/>
		<circle id="tweetID-11068" class="st1" cx="749" cy="626.1" r="5"/>
		<circle id="tweetID-11080" class="st1" cx="749" cy="599.1" r="5"/>
		<circle id="tweetID-11102" class="st1" cx="749" cy="627.1" r="5"/>
		<circle id="tweetID-11103" class="st1" cx="749" cy="613.1" r="5"/>
		<circle id="tweetID-11104" class="st1" cx="749" cy="627.1" r="5"/>
		<circle id="tweetID-11105" class="st1" cx="749" cy="627.1" r="5"/>
		<circle id="tweetID-11106" class="st1" cx="749" cy="616.1" r="5"/>
		<circle id="tweetID-11109" class="st1" cx="749" cy="619.1" r="5"/>
		<circle id="tweetID-11110" class="st1" cx="749" cy="614.1" r="5"/>
		<circle id="tweetID-11188" class="st1" cx="767" cy="631.1" r="5"/>
		<circle id="tweetID-11264" class="st1" cx="767" cy="626.1" r="5"/>
		<circle id="tweetID-11274" class="st1" cx="767" cy="647.1" r="5"/>
		<circle id="tweetID-11299" class="st2" cx="767" cy="629.1" r="5"/>
		<circle id="tweetID-11519" class="st1" cx="785" cy="608.1" r="5"/>
		<circle id="tweetID-11617" class="st1" cx="803" cy="607.1" r="5"/>
		<circle id="tweetID-11682" class="st4" cx="822" cy="618.1" r="5"/>
		<circle id="tweetID-11800" class="st1" cx="822" cy="571.1" r="5"/>
		<circle id="tweetID-11805" class="st0" cx="822" cy="479.1" r="5"/>
		<circle id="tweetID-11877" class="st1" cx="822" cy="613.1" r="5"/>
		<circle id="tweetID-11923" class="st1" cx="840" cy="589.1" r="5"/>
		<circle id="tweetID-11978" class="st1" cx="840" cy="598.1" r="5"/>
		<circle id="tweetID-12000" class="st1" cx="840" cy="579.1" r="5"/>
		<circle id="tweetID-12020" class="st1" cx="840" cy="651.1" r="5"/>
		<circle id="tweetID-12053" class="st1" cx="840" cy="605.1" r="5"/>
		<circle id="tweetID-12075" class="st4" cx="840" cy="647.1" r="5"/>
		<circle id="tweetID-12100" class="st1" cx="840" cy="557.1" r="5"/>
		<circle id="tweetID-12117" class="st1" cx="840" cy="626.1" r="5"/>
		<circle id="tweetID-12125" class="st4" cx="840" cy="583.1" r="5"/>
		<circle id="tweetID-12191" class="st1" cx="858" cy="639.1" r="5"/>
		<circle id="tweetID-12331" class="st2" cx="858" cy="638.1" r="5"/>
		<circle id="tweetID-12417" class="st1" cx="876" cy="610.1" r="5"/>
		<circle id="tweetID-12517" class="st1" cx="876" cy="610.1" r="5"/>
		<circle id="tweetID-12544" class="st4" cx="876" cy="610.1" r="5"/>
		<circle id="tweetID-12630" class="st2" cx="894" cy="606.1" r="5"/>
		<circle id="tweetID-12745" class="st4" cx="894" cy="630.1" r="5"/>
		<circle id="tweetID-12847" class="st4" cx="894" cy="618.1" r="5"/>
		<circle id="tweetID-12890" class="st1" cx="912" cy="639.1" r="5"/>
		<circle id="tweetID-12901" class="st1" cx="912" cy="565.1" r="5"/>
		<circle id="tweetID-12911" class="st0" cx="912" cy="525.1" r="5"/>
		<circle id="tweetID-12956" class="st0" cx="912" cy="413.1" r="5"/>
		<circle id="tweetID-13016" class="st4" cx="912" cy="607.1" r="5"/>
		<circle id="tweetID-13125" class="st1" cx="930" cy="617.1" r="5"/>
		<circle id="tweetID-13133" class="st1" cx="930" cy="610.1" r="5"/>
		<circle id="tweetID-13179" class="st2" cx="930" cy="642.1" r="5"/>
		<circle id="tweetID-13181" class="st4" cx="930" cy="628.1" r="5"/>
		<circle id="tweetID-13272" class="st1" cx="948" cy="623.1" r="5"/>
		<circle id="tweetID-13276" class="st1" cx="948" cy="653.1" r="5"/>
		<circle id="tweetID-13468" class="st1" cx="966" cy="588.1" r="5"/>
		<circle id="tweetID-13470" class="st1" cx="966" cy="596.1" r="5"/>
		<circle id="tweetID-13482" class="st1" cx="966" cy="617.1" r="5"/>
		<circle id="tweetID-13502" class="st4" cx="966" cy="596.1" r="5"/>
		<circle id="tweetID-13566" class="st1" cx="966" cy="615.1" r="5"/>
		<circle id="tweetID-13576" class="st1" cx="966" cy="631.1" r="5"/>
	</g>
	<g id="travelBanLine">
		<line class="st5" x1="401" y1="673.7" x2="401" y2="67.1"/>
	</g>
	<g transform="translate(0,606.5278116861979)">
		<path class="st6" d="M-61.5,73.1v-5.5H966.3v5.5"/>
		<g transform="translate(5.5,0)">
			<line class="st6" x1="-62" y1="67.1" x2="-62" y2="73.1"/>
			<text transform="matrix(1 0 0 1 -73.123 83.2389)" class="st7 st8">2017</text>
		</g>
		<g transform="translate(131.5,0)">
			<line class="st6" x1="-62" y1="67.1" x2="-62" y2="73.1"/>
			<text transform="matrix(1 0 0 1 -77.0122 83.2389)" class="st7 st8">Jan 08</text>
		</g>
		<g transform="translate(257.5,0)">
			<line class="st6" x1="-62" y1="67.1" x2="-62" y2="73.1"/>
			<text transform="matrix(1 0 0 1 -77.0122 83.2389)" class="st7 st8">Jan 15</text>
		</g>
		<g transform="translate(383.5,0)">
			<line class="st6" x1="-62" y1="67.1" x2="-62" y2="73.1"/>
			<text transform="matrix(1 0 0 1 -77.0122 83.2389)" class="st7 st8">Jan 22</text>
		</g>
		<g transform="translate(509.5,0)">
			<line class="st6" x1="-62" y1="67.1" x2="-62" y2="73.1"/>
			<text transform="matrix(1 0 0 1 -77.0122 83.2389)" class="st7 st8">Jan 29</text>
		</g>
		<g transform="translate(636.5,0)">
			<line class="st6" x1="-62" y1="67.1" x2="-62" y2="73.1"/>
			<text transform="matrix(1 0 0 1 -77.5664 83.2389)" class="st7 st8">Feb 05</text>
		</g>
		<g transform="translate(762.5,0)">
			<line class="st6" x1="-62" y1="67.1" x2="-62" y2="73.1"/>
			<text transform="matrix(1 0 0 1 -77.5664 83.2389)" class="st7 st8">Feb 12</text>
		</g>
		<g transform="translate(888.5,0)">
			<line class="st6" x1="-62" y1="67.1" x2="-62" y2="73.1"/>
			<text transform="matrix(1 0 0 1 -77.5664 83.2389)" class="st7 st8">Feb 19</text>
		</g>
		<g transform="translate(1014.5,0)">
			<line class="st6" x1="-62" y1="67.1" x2="-62" y2="73.1"/>
			<text transform="matrix(1 0 0 1 -77.5664 83.2389)" class="st7 st8">Feb 26</text>
			<text transform="matrix(1 0 0 1 -124.3389 98.4725)" class="st9 st10">Date of 1st RT</text>
		</g>
	</g>
	<g transform="translate(-16.666666666666668,0)">
		<path class="st6" d="M-68,657.5h6.5V67.6H-68"/>
		<g transform="translate(0,590.5)">
			<line class="st6" x1="-62" y1="67.1" x2="-68" y2="67.1"/>
			<text transform="matrix(1 0 0 1 -76.5615 70.3389)" class="st7 st8">0</text>
		</g>
		<g transform="translate(0,400.5)">
			<line class="st6" x1="-62" y1="67.1" x2="-68" y2="67.1"/>
			<text transform="matrix(1 0 0 1 -81.5615 70.3389)" class="st7 st8">2k</text>
		</g>
		<g transform="translate(0,322.5)">
			<line class="st6" x1="-62" y1="67.1" x2="-68" y2="67.1"/>
			<text transform="matrix(1 0 0 1 -81.5615 70.3389)" class="st7 st8">4k</text>
		</g>
		<g transform="translate(0,262.5)">
			<line class="st6" x1="-62" y1="67.1" x2="-68" y2="67.1"/>
			<text transform="matrix(1 0 0 1 -81.5615 70.3389)" class="st7 st8">6k</text>
		</g>
		<g transform="translate(0,211.5)">
			<line class="st6" x1="-62" y1="67.1" x2="-68" y2="67.1"/>
			<text transform="matrix(1 0 0 1 -81.5615 70.3389)" class="st7 st8">8k</text>
		</g>
		<g transform="translate(0,166.5)">
			<line class="st6" x1="-62" y1="67.1" x2="-68" y2="67.1"/>
			<text transform="matrix(1 0 0 1 -87.1231 70.3389)" class="st7 st8">10k</text>
		</g>
		<g transform="translate(0,126.5)">
			<line class="st6" x1="-62" y1="67.1" x2="-68" y2="67.1"/>
			<text transform="matrix(1 0 0 1 -87.1231 70.3389)" class="st7 st8">10k</text>
		</g>
		<g transform="translate(0,89.5)">
			<line class="st6" x1="-62" y1="67.1" x2="-68" y2="67.1"/>
			<text transform="matrix(1 0 0 1 -87.1231 70.3389)" class="st7 st8">10k</text>
		</g>
		<g transform="translate(0,54.5)">
			<line class="st6" x1="-62" y1="67.1" x2="-68" y2="67.1"/>
			<text transform="matrix(1 0 0 1 -87.1231 70.3389)" class="st7 st8">20k</text>
		</g>
		<g transform="translate(0,21.5)">
			<line class="st6" x1="-62" y1="67.1" x2="-68" y2="67.1"/>
			<text transform="matrix(1 0 0 1 -87.1231 70.3389)" class="st7 st8">20k</text>
			<text transform="matrix(1 0 0 1 -52 70.9789)" class="st9 st10"># RT&apos;s</text>
		</g>
	</g>
	<g transform="translate(823.3333740234375,32.99305725097656)">
		<g transform="translate(0,13.328125)">
			<g transform="translate(0, 0)">
				<rect x="-62" y="67.1" class="st11" width="30" height="15"/>
				<text transform="matrix(1 0 0 1 -22 79.6388)" class="st7 st10">celebrity</text>
			</g>
			<g transform="translate(0, 25)">
				<rect x="-62" y="67.1" class="st12" width="30" height="15"/>
				<text transform="matrix(1 0 0 1 -22 79.6388)" class="st7 st10">journalist</text>
			</g>
			<g transform="translate(0, 50)">
				<rect x="-62" y="67.1" class="st13" width="30" height="15"/>
				<text transform="matrix(1 0 0 1 -22 79.6388)" class="st7 st10">academic</text>
			</g>
			<g transform="translate(0, 75)">
				<rect x="-62" y="67.1" class="st14" width="30" height="15"/>
				<text transform="matrix(1 0 0 1 -22 79.6388)" class="st7 st10">politician</text>
			</g>
			<g transform="translate(0, 100)">
				<rect x="-62" y="67.1" class="st15" width="30" height="15"/>
				<text transform="matrix(1 0 0 1 -22 79.6388)" class="st7 st10">activist</text>
			</g>
		</g>
		<text transform="matrix(1 0 0 1 -62 67.1388)" class="st9 st10">User Category</text>
	</g>
	<g>
		<g>
			<g transform="translate(463, 85)">
				<g>
					<path class="st16" d="M-62,67.1l-75-49"/>
				</g>
				<g transform="translate(-75, -49)">
					<g transform="translate(-61.546875, -30.989062500000003)">
						<rect x="-62" y="67.1" class="st17" width="62.7" height="28"/>
						<text transform="matrix(1 0 0 1 -62 91.3998)" class="st18 st7 st10">Jan 27th</text>
						<text transform="matrix(1 0 0 1 -62 76.7389)" class="st18 st9 st10">Travel Ban</text>
					</g>
				</g>
			</g>
		</g>
	</g>
</g>
</svg>
