<?xml version="1.0" encoding="utf-8"?>
<!-- Generator: Adobe Illustrator 19.1.1, SVG Export Plug-In . SVG Version: 6.00 Build 0)  -->
<svg version="1.1" id="Layer_1" xmlns="http://www.w3.org/2000/svg" xmlns:xlink="http://www.w3.org/1999/xlink" x="0px" y="0px"
	 viewBox="-73.5 70.6 1185 730" style="enable-background:new -73.5 70.6 1185 730;" xml:space="preserve">
<style type="text/css">
	.st0{fill:#A6BDDB;}
	.st1{fill:#034E7B;}
	.st2{fill:#333333;}
	.st3{font-family:'ArialMT';}
	.st4{font-size:12px;}
	.st5{fill:#222222;}
	.st6{fill:#FFFFFF;}
	.st7{display:none;fill:none;stroke:#222222;}
	.st8{fill:none;stroke:#222222;}
	.st9{font-family:'Arial-BoldMT';}
	.st10{fill:none;stroke:#333333;stroke-dasharray:4,4;}
	.st11{fill:none;stroke:#333333;}
	.st12{fill:none;}
</style>
<g transform="translate(36,30)">
	<g>
		<g transform="translate(2,0)">
			<rect x="-49" y="731.2" class="st0" width="53" height="2.9"/>
			<rect x="10" y="728.2" class="st1" width="53" height="5.9"/>
			<text transform="matrix(1 0 0 1 -33.8408 721.2389)" class="st2 st3 st4">3.0k</text>
			<text transform="matrix(1 0 0 1 25.1592 718.2389)" class="st2 st3 st4">7.2k</text>
		</g>
		<g transform="translate(141,0)">
			<rect x="-49" y="730.2" class="st0" width="53" height="3.9"/>
			<rect x="10" y="723.2" class="st1" width="53" height="10.9"/>
			<text transform="matrix(1 0 0 1 -33.8408 720.2389)" class="st2 st3 st4">4.8k</text>
			<text transform="matrix(1 0 0 1 26.8262 713.2389)" class="st2 st3 st4">13k</text>
		</g>
		<g transform="translate(280,0)">
			<rect x="-49" y="729.2" class="st0" width="53" height="4.9"/>
			<rect x="10" y="724.2" class="st1" width="53" height="9.9"/>
			<text transform="matrix(1 0 0 1 -33.8408 719.2389)" class="st2 st3 st4">6.0k</text>
			<text transform="matrix(1 0 0 1 27.2715 714.2389)" class="st2 st3 st4">11k</text>
		</g>
		<g transform="translate(419,0)">
			<rect x="-49" y="665.2" class="st0" width="53" height="68.9"/>
			<rect x="10" y="603.2" class="st1" width="53" height="130.9"/>
			<text transform="matrix(1 0 0 1 -32.1738 680.2389)" class="st5 st3 st4">82k</text>
			<text transform="matrix(1 0 0 1 23.4893 618.2389)" class="st6 st3 st4">150k</text>
		</g>
		<g transform="translate(558,0)">
			<rect x="-49" y="558.2" class="st0" width="53" height="175.9"/>
			<rect x="10" y="64.2" class="st1" width="53" height="669.9"/>
			<text transform="matrix(1 0 0 1 -35.5107 573.2389)" class="st5 st3 st4">210k</text>
			<text transform="matrix(1 0 0 1 23.4893 79.2388)" class="st6 st3 st4">790k</text>
		</g>
		<g transform="translate(697,0)">
			<rect x="-49" y="684.2" class="st0" width="53" height="49.9"/>
			<rect x="10" y="570.2" class="st1" width="53" height="163.9"/>
			<text transform="matrix(1 0 0 1 -32.1738 699.2389)" class="st5 st3 st4">59k</text>
			<text transform="matrix(1 0 0 1 23.4893 585.2389)" class="st6 st3 st4">190k</text>
		</g>
		<g transform="translate(836,0)">
			<rect x="-49" y="666.2" class="st0" width="53" height="67.9"/>
			<rect x="10" y="620.2" class="st1" width="53" height="113.9"/>
			<text transform="matrix(1 0 0 1 -32.1738 681.2389)" class="st5 st3 st4">80k</text>
			<text transform="matrix(1 0 0 1 23.4893 635.2389)" class="st6 st3 st4">130k</text>
		</g>
		<g transform="translate(975,0)">
			<rect x="-49" y="672.2" class="st0" width="53" height="61.9"/>
			<rect x="10" y="596.2" class="st1" width="53" height="137.9"/>
			<text transform="matrix(1 0 0 1 -32.1738 687.2389)" class="st5 st3 st4">73k</text>
			<text transform="matrix(1 0 0 1 23.4893 611.2389)" class="st6 st3 st4">160k</text>
		</g>
	</g>
	<g>
		<g transform="translate(0,669.8611450195312)">
			<path class="st7" d="M-54.5,70.2v-5.5h1101.8v5.5"/>
			<g transform="translate(64.5,0)">
				<line class="st8" x1="-55" y1="64.2" x2="-55" y2="70.2"/>
				<text transform="matrix(1 0 0 1 -79.0146 81.7589)" class="st3 st4">Dec 30th</text>
			</g>
			<g transform="translate(203.5,0)">
				<line class="st8" x1="-55" y1="64.2" x2="-55" y2="70.2"/>
				<text transform="matrix(1 0 0 1 -91.3633 81.7589)" class="st3 st4">Jan 6th, 2017</text>
			</g>
			<g transform="translate(342.5,0)">
				<line class="st8" x1="-55" y1="64.2" x2="-55" y2="70.2"/>
				<text transform="matrix(1 0 0 1 -78.0186 81.7589)" class="st3 st4">Jan 13th</text>
			</g>
			<g transform="translate(481.5,0)">
				<line class="st8" x1="-55" y1="64.2" x2="-55" y2="70.2"/>
				<text transform="matrix(1 0 0 1 -78.0186 81.7589)" class="st3 st4">Jan 20th</text>
			</g>
			<g transform="translate(620.5,0)">
				<line class="st8" x1="-55" y1="64.2" x2="-55" y2="70.2"/>
				<text transform="matrix(1 0 0 1 -75.3467 81.7589)" class="st3 st4">Feb 4th</text>
			</g>
			<g transform="translate(759.5,0)">
				<line class="st8" x1="-55" y1="64.2" x2="-55" y2="70.2"/>
				<text transform="matrix(1 0 0 1 -78.2383 81.7589)" class="st3 st4">Feb 11th</text>
			</g>
			<g transform="translate(898.5,0)">
				<line class="st8" x1="-55" y1="64.2" x2="-55" y2="70.2"/>
				<text transform="matrix(1 0 0 1 -78.6836 81.7589)" class="st3 st4">Feb 18th</text>
			</g>
			<g transform="translate(1037.5,0)">
				<line class="st8" x1="-55" y1="64.2" x2="-55" y2="70.2"/>
				<text transform="matrix(1 0 0 1 -78.6836 81.7589)" class="st3 st4">Feb 25th</text>
			</g>
		</g>
		<g>
			<path class="st8" d="M-61,734.6h6.5V64.7H-61"/>
			<g transform="translate(0,670.5)">
				<line class="st8" x1="-55" y1="64.2" x2="-61" y2="64.2"/>
				<text transform="matrix(1 0 0 1 -80.6816 68.0789)" class="st3 st4">0.0</text>
			</g>
			<g transform="translate(0,585.5)">
				<line class="st8" x1="-55" y1="64.2" x2="-61" y2="64.2"/>
				<text transform="matrix(1 0 0 1 -90.0215 68.0789)" class="st3 st4">100k</text>
			</g>
			<g transform="translate(0,500.5)">
				<line class="st8" x1="-55" y1="64.2" x2="-61" y2="64.2"/>
				<text transform="matrix(1 0 0 1 -90.0215 68.0789)" class="st3 st4">200k</text>
			</g>
			<g transform="translate(0,415.5)">
				<line class="st8" x1="-55" y1="64.2" x2="-61" y2="64.2"/>
				<text transform="matrix(1 0 0 1 -90.0215 68.0789)" class="st3 st4">300k</text>
			</g>
			<g transform="translate(0,331.5)">
				<line class="st8" x1="-55" y1="64.2" x2="-61" y2="64.2"/>
				<text transform="matrix(1 0 0 1 -90.0215 68.0789)" class="st3 st4">400k</text>
			</g>
			<g transform="translate(0,246.5)">
				<line class="st8" x1="-55" y1="64.2" x2="-61" y2="64.2"/>
				<text transform="matrix(1 0 0 1 -90.0215 68.0789)" class="st3 st4">500k</text>
			</g>
			<g transform="translate(0,161.5)">
				<line class="st8" x1="-55" y1="64.2" x2="-61" y2="64.2"/>
				<text transform="matrix(1 0 0 1 -90.0215 68.0789)" class="st3 st4">600k</text>
			</g>
			<g transform="translate(0,76.5)">
				<line class="st8" x1="-55" y1="64.2" x2="-61" y2="64.2"/>
				<text transform="matrix(1 0 0 1 -90.0215 68.0789)" class="st3 st4">700k</text>
			</g>
			<text transform="matrix(1 0 0 1 -45.1797 78.7589)" class="st5 st9 st4">Occurences per Week</text>
		</g>
	</g>
	<g id="travelBanAnot">
		<line class="st10" x1="496" y1="734.1" x2="496" y2="64.2"/>
	</g>
	<g>
		<g>
			<g transform="translate(551, 85)">
				<g>
					<path class="st11" d="M-55,64.2l-75-49"/>
				</g>
				<g transform="translate(-75, -49)">
					<g transform="translate(-61.546875, -30.989062500000003)">
						<rect x="-55" y="64.2" class="st12" width="62.7" height="28"/>
						<text transform="matrix(1 0 0 1 -55 88.4997)" class="st2 st3 st4">Jan 27th</text>
						<text transform="matrix(1 0 0 1 -55 73.8389)" class="st2 st9 st4">Travel Ban</text>
					</g>
				</g>
			</g>
		</g>
	</g>
	<g id="barLegend" transform="translate(951.77783203125,30)">
		<g transform="translate(0,13.328125)">
			<g transform="translate(0, 0)">
				<rect x="-55" y="64.2" class="st0" width="55.1" height="30"/>
				<text transform="matrix(1 0 0 1 10.0889 84.2388)" class="st3 st4">immigrant</text>
			</g>
			<g transform="translate(0, 32)">
				<rect x="-55" y="64.2" class="st1" width="55.1" height="30"/>
				<text transform="matrix(1 0 0 1 10.0889 84.2388)" class="st3 st4">immigration</text>
			</g>
		</g>
		<text transform="matrix(1 0 0 1 -55 64.2388)" class="st9 st4">Keyword</text>
	</g>
</g>
</svg>
