<?xml version="1.0" encoding="utf-8"?>
<!-- Generator: Adobe Illustrator 19.1.1, SVG Export Plug-In . SVG Version: 6.00 Build 0)  -->
<svg version="1.1" id="Layer_1" xmlns="http://www.w3.org/2000/svg" xmlns:xlink="http://www.w3.org/1999/xlink" x="0px" y="0px"
	 viewBox="-41 32 1182 749" style="enable-background:new -41 32 1182 749;" xml:space="preserve">
<style type="text/css">
	.st0{fill:#A6BDDB;}
	.st1{fill:#034E7B;}
	.st2{fill:#333333;}
	.st3{font-family:'ArialMT';}
	.st4{font-size:12px;}
	.st5{fill:#FFFFFF;}
	.st6{display:none;fill:none;stroke:#222222;}
	.st7{fill:none;stroke:#222222;}
	.st8{font-family:'Arial-BoldMT';}
	.st9{fill:none;stroke:#333333;stroke-dasharray:4,4;}
	.st10{fill:none;stroke:#333333;}
	.st11{fill:none;}
</style>
<g transform="translate(36,30)">
	<g>
		<g transform="translate(2,0)">
			<rect x="-21" y="693" class="st0" width="53" height="3"/>
			<rect x="38" y="690" class="st1" width="53" height="6"/>
			<text transform="matrix(1 0 0 1 -5.8408 683)" class="st2 st3 st4">3.0k</text>
			<text transform="matrix(1 0 0 1 53.1592 680)" class="st2 st3 st4">7.2k</text>
		</g>
		<g transform="translate(141,0)">
			<rect x="-21" y="692" class="st0" width="53" height="4"/>
			<rect x="38" y="685" class="st1" width="53" height="11"/>
			<text transform="matrix(1 0 0 1 -5.8408 682)" class="st2 st3 st4">4.8k</text>
			<text transform="matrix(1 0 0 1 54.8262 675)" class="st2 st3 st4">13k</text>
		</g>
		<g transform="translate(280,0)">
			<rect x="-21" y="691" class="st0" width="53" height="5"/>
			<rect x="38" y="686" class="st1" width="53" height="10"/>
			<text transform="matrix(1 0 0 1 -5.8408 681)" class="st2 st3 st4">6.0k</text>
			<text transform="matrix(1 0 0 1 55.2715 676)" class="st2 st3 st4">11k</text>
		</g>
		<g transform="translate(419,0)">
			<rect x="-21" y="627" class="st0" width="53" height="69"/>
			<rect x="38" y="566" class="st1" width="53" height="130"/>
			<text transform="matrix(1 0 0 1 -4.1738 642)" class="st5 st3 st4">82k</text>
			<text transform="matrix(1 0 0 1 51.4893 581)" class="st5 st3 st4">150k</text>
		</g>
		<g transform="translate(558,0)">
			<rect x="-21" y="522" class="st0" width="53" height="174"/>
			<rect x="38" y="32" class="st1" width="53" height="664"/>
			<text transform="matrix(1 0 0 1 -7.5107 537)" class="st5 st3 st4">210k</text>
			<text transform="matrix(1 0 0 1 51.4893 47)" class="st5 st3 st4">790k</text>
		</g>
		<g transform="translate(697,0)">
			<rect x="-21" y="646" class="st0" width="53" height="50"/>
			<rect x="38" y="533" class="st1" width="53" height="163"/>
			<text transform="matrix(1 0 0 1 -4.1738 661)" class="st5 st3 st4">59k</text>
			<text transform="matrix(1 0 0 1 51.4893 548)" class="st5 st3 st4">190k</text>
		</g>
		<g transform="translate(836,0)">
			<rect x="-21" y="629" class="st0" width="53" height="67"/>
			<rect x="38" y="583" class="st1" width="53" height="113"/>
			<text transform="matrix(1 0 0 1 -4.1738 644)" class="st5 st3 st4">80k</text>
			<text transform="matrix(1 0 0 1 51.4893 598)" class="st5 st3 st4">130k</text>
		</g>
		<g transform="translate(975,0)">
			<rect x="-21" y="635" class="st0" width="53" height="61"/>
			<rect x="38" y="559" class="st1" width="53" height="137"/>
			<text transform="matrix(1 0 0 1 -4.1738 650)" class="st5 st3 st4">73k</text>
			<text transform="matrix(1 0 0 1 51.4893 574)" class="st5 st3 st4">160k</text>
		</g>
	</g>
	<g>
		<g transform="translate(0,664)">
			<path class="st6" d="M-26.5,38v-5.5h1102V38"/>
			<g transform="translate(64.5,0)">
				<line class="st7" x1="-27" y1="32" x2="-27" y2="38"/>
				<text transform="matrix(1 0 0 1 -51.0146 49.52)" class="st3 st4">Dec 30th</text>
			</g>
			<g transform="translate(203.5,0)">
				<line class="st7" x1="-27" y1="32" x2="-27" y2="38"/>
				<text transform="matrix(1 0 0 1 -63.3633 49.52)" class="st3 st4">Jan 6th, 2017</text>
			</g>
			<g transform="translate(342.5,0)">
				<line class="st7" x1="-27" y1="32" x2="-27" y2="38"/>
				<text transform="matrix(1 0 0 1 -50.0186 49.52)" class="st3 st4">Jan 13th</text>
			</g>
			<g transform="translate(481.5,0)">
				<line class="st7" x1="-27" y1="32" x2="-27" y2="38"/>
				<text transform="matrix(1 0 0 1 -50.0186 49.52)" class="st3 st4">Jan 20th</text>
			</g>
			<g transform="translate(620.5,0)">
				<line class="st7" x1="-27" y1="32" x2="-27" y2="38"/>
				<text transform="matrix(1 0 0 1 -47.3467 49.52)" class="st3 st4">Feb 4th</text>
			</g>
			<g transform="translate(759.5,0)">
				<line class="st7" x1="-27" y1="32" x2="-27" y2="38"/>
				<text transform="matrix(1 0 0 1 -50.2383 49.52)" class="st3 st4">Feb 11th</text>
			</g>
			<g transform="translate(898.5,0)">
				<line class="st7" x1="-27" y1="32" x2="-27" y2="38"/>
				<text transform="matrix(1 0 0 1 -50.6836 49.52)" class="st3 st4">Feb 18th</text>
			</g>
			<g transform="translate(1037.5,0)">
				<line class="st7" x1="-27" y1="32" x2="-27" y2="38"/>
				<text transform="matrix(1 0 0 1 -50.6836 49.52)" class="st3 st4">Feb 25th</text>
			</g>
			<text transform="matrix(1 0 0 1 938.1855 75.52)" class="st2 st8 st4">Week Before/After Ban</text>
		</g>
		<g>
			<path class="st7" d="M-33,696.5h6.5v-664H-33"/>
			<g transform="translate(0,664.5)">
				<line class="st7" x1="-27" y1="32" x2="-33" y2="32"/>
				<text transform="matrix(1 0 0 1 -52.6816 35.84)" class="st3 st4">0.0</text>
			</g>
			<g transform="translate(0,580.5)">
				<line class="st7" x1="-27" y1="32" x2="-33" y2="32"/>
				<text transform="matrix(1 0 0 1 -62.0215 35.84)" class="st3 st4">100k</text>
			</g>
			<g transform="translate(0,496.5)">
				<line class="st7" x1="-27" y1="32" x2="-33" y2="32"/>
				<text transform="matrix(1 0 0 1 -62.0215 35.84)" class="st3 st4">200k</text>
			</g>
			<g transform="translate(0,412.5)">
				<line class="st7" x1="-27" y1="32" x2="-33" y2="32"/>
				<text transform="matrix(1 0 0 1 -62.0215 35.84)" class="st3 st4">300k</text>
			</g>
			<g transform="translate(0,328.5)">
				<line class="st7" x1="-27" y1="32" x2="-33" y2="32"/>
				<text transform="matrix(1 0 0 1 -62.0215 35.84)" class="st3 st4">400k</text>
			</g>
			<g transform="translate(0,244.5)">
				<line class="st7" x1="-27" y1="32" x2="-33" y2="32"/>
				<text transform="matrix(1 0 0 1 -62.0215 35.84)" class="st3 st4">500k</text>
			</g>
			<g transform="translate(0,160.5)">
				<line class="st7" x1="-27" y1="32" x2="-33" y2="32"/>
				<text transform="matrix(1 0 0 1 -62.0215 35.84)" class="st3 st4">600k</text>
			</g>
			<g transform="translate(0,76.5)">
				<line class="st7" x1="-27" y1="32" x2="-33" y2="32"/>
				<text transform="matrix(1 0 0 1 -62.0215 35.84)" class="st3 st4">700k</text>
			</g>
			<text transform="matrix(1 0 0 1 -17.1797 46.52)" class="st2 st8 st4">Occurences per Week</text>
		</g>
	</g>
	<g id="travelBanAnot">
		<line class="st9" x1="524" y1="696" x2="524" y2="32"/>
	</g>
	<g>
		<g>
			<g transform="translate(551, 85)">
				<g>
					<path class="st10" d="M-27,32l-75-49"/>
				</g>
				<g transform="translate(-75, -49)">
					<g transform="translate(-60.6875, -32.400000000000006)">
						<rect x="-27" y="32" class="st11" width="61.7" height="29.4"/>
						<text transform="matrix(1 0 0 1 -27 57)" class="st2 st3 st4">Jan 27th</text>
						<text transform="matrix(1 0 0 1 -27 41.6)" class="st2 st8 st4">Travel Ban</text>
					</g>
				</g>
			</g>
		</g>
	</g>
	<g id="barLegend" transform="translate(952,30)">
		<g transform="translate(0,14)">
			<g transform="translate(0, 0)">
				<rect x="-27" y="32" class="st0" width="55.1" height="30"/>
				<text transform="matrix(1 0 0 1 38.1 52)" class="st3 st4">immigrant</text>
			</g>
			<g transform="translate(0, 32)">
				<rect x="-27" y="32" class="st1" width="55.1" height="30"/>
				<text transform="matrix(1 0 0 1 38.1 52)" class="st3 st4">immigration</text>
			</g>
		</g>
		<text transform="matrix(1 0 0 1 -27 32)" class="st8 st4">Keyword</text>
	</g>
</g>
</svg>
