<?xml version="1.0" encoding="utf-8"?>
<!-- Generator: Adobe Illustrator 19.1.1, SVG Export Plug-In . SVG Version: 6.00 Build 0)  -->
<svg version="1.1" id="Layer_1" xmlns="http://www.w3.org/2000/svg" xmlns:xlink="http://www.w3.org/1999/xlink" x="0px" y="0px"
	 viewBox="-41 32.1 1166 729.9" style="enable-background:new -41 32.1 1166 729.9;" xml:space="preserve">
<style type="text/css">
	.st0{fill:#A6BDDB;}
	.st1{fill:#034E7B;}
	.st2{fill:#333333;}
	.st3{font-family:'ArialMT';}
	.st4{font-size:12px;}
	.st5{fill:#222222;}
	.st6{fill:#FFFFFF;}
	.st7{display:none;fill:none;stroke:#222222;}
	.st8{fill:none;stroke:#222222;}
	.st9{font-family:'Arial-BoldMT';}
	.st10{fill:none;stroke:#333333;stroke-dasharray:4,4;}
	.st11{fill:none;stroke:#333333;}
	.st12{fill:none;}
</style>
<g transform="translate(36,30)">
	<g>
		<g transform="translate(2,0)">
			<rect x="-21" y="699.1" class="st0" width="53" height="2.9"/>
			<rect x="38" y="696.1" class="st1" width="53" height="5.9"/>
			<text transform="matrix(1 0 0 1 -5.8408 689.1389)" class="st2 st3 st4">3.0k</text>
			<text transform="matrix(1 0 0 1 53.1592 686.1389)" class="st2 st3 st4">7.2k</text>
		</g>
		<g transform="translate(141,0)">
			<rect x="-21" y="698.1" class="st0" width="53" height="3.9"/>
			<rect x="38" y="691.1" class="st1" width="53" height="10.9"/>
			<text transform="matrix(1 0 0 1 -5.8408 688.1389)" class="st2 st3 st4">4.8k</text>
			<text transform="matrix(1 0 0 1 54.8262 681.1389)" class="st2 st3 st4">13k</text>
		</g>
		<g transform="translate(280,0)">
			<rect x="-21" y="697.1" class="st0" width="53" height="4.9"/>
			<rect x="38" y="692.1" class="st1" width="53" height="9.9"/>
			<text transform="matrix(1 0 0 1 -5.8408 687.1389)" class="st2 st3 st4">6.0k</text>
			<text transform="matrix(1 0 0 1 55.2715 682.1389)" class="st2 st3 st4">11k</text>
		</g>
		<g transform="translate(419,0)">
			<rect x="-21" y="633.1" class="st0" width="53" height="68.9"/>
			<rect x="38" y="571.1" class="st1" width="53" height="130.9"/>
			<text transform="matrix(1 0 0 1 -4.1738 648.1389)" class="st5 st3 st4">82k</text>
			<text transform="matrix(1 0 0 1 51.4893 586.1389)" class="st6 st3 st4">150k</text>
		</g>
		<g transform="translate(558,0)">
			<rect x="-21" y="526.1" class="st0" width="53" height="175.9"/>
			<rect x="38" y="32.1" class="st1" width="53" height="669.9"/>
			<text transform="matrix(1 0 0 1 -7.5107 541.1389)" class="st5 st3 st4">210k</text>
			<text transform="matrix(1 0 0 1 51.4893 47.1389)" class="st6 st3 st4">790k</text>
		</g>
		<g transform="translate(697,0)">
			<rect x="-21" y="652.1" class="st0" width="53" height="49.9"/>
			<rect x="38" y="538.1" class="st1" width="53" height="163.9"/>
			<text transform="matrix(1 0 0 1 -4.1738 667.1389)" class="st5 st3 st4">59k</text>
			<text transform="matrix(1 0 0 1 51.4893 553.1389)" class="st6 st3 st4">190k</text>
		</g>
		<g transform="translate(836,0)">
			<rect x="-21" y="634.1" class="st0" width="53" height="67.9"/>
			<rect x="38" y="588.1" class="st1" width="53" height="113.9"/>
			<text transform="matrix(1 0 0 1 -4.1738 649.1389)" class="st5 st3 st4">80k</text>
			<text transform="matrix(1 0 0 1 51.4893 603.1389)" class="st6 st3 st4">130k</text>
		</g>
		<g transform="translate(975,0)">
			<rect x="-21" y="640.1" class="st0" width="53" height="61.9"/>
			<rect x="38" y="564.1" class="st1" width="53" height="137.9"/>
			<text transform="matrix(1 0 0 1 -4.1738 655.1389)" class="st5 st3 st4">73k</text>
			<text transform="matrix(1 0 0 1 51.4893 579.1389)" class="st6 st3 st4">160k</text>
		</g>
	</g>
	<g>
		<g transform="translate(0,669.8611450195312)">
			<path class="st7" d="M-26.5,38.1v-5.5h1101.8v5.5"/>
			<g transform="translate(64.5,0)">
				<line class="st8" x1="-27" y1="32.1" x2="-27" y2="38.1"/>
				<text transform="matrix(1 0 0 1 -51.0146 49.6589)" class="st3 st4">Dec 30th</text>
			</g>
			<g transform="translate(203.5,0)">
				<line class="st8" x1="-27" y1="32.1" x2="-27" y2="38.1"/>
				<text transform="matrix(1 0 0 1 -63.3633 49.6589)" class="st3 st4">Jan 6th, 2017</text>
			</g>
			<g transform="translate(342.5,0)">
				<line class="st8" x1="-27" y1="32.1" x2="-27" y2="38.1"/>
				<text transform="matrix(1 0 0 1 -50.0186 49.6589)" class="st3 st4">Jan 13th</text>
			</g>
			<g transform="translate(481.5,0)">
				<line class="st8" x1="-27" y1="32.1" x2="-27" y2="38.1"/>
				<text transform="matrix(1 0 0 1 -50.0186 49.6589)" class="st3 st4">Jan 20th</text>
			</g>
			<g transform="translate(620.5,0)">
				<line class="st8" x1="-27" y1="32.1" x2="-27" y2="38.1"/>
				<text transform="matrix(1 0 0 1 -47.3467 49.6589)" class="st3 st4">Feb 4th</text>
			</g>
			<g transform="translate(759.5,0)">
				<line class="st8" x1="-27" y1="32.1" x2="-27" y2="38.1"/>
				<text transform="matrix(1 0 0 1 -50.2383 49.6589)" class="st3 st4">Feb 11th</text>
			</g>
			<g transform="translate(898.5,0)">
				<line class="st8" x1="-27" y1="32.1" x2="-27" y2="38.1"/>
				<text transform="matrix(1 0 0 1 -50.6836 49.6589)" class="st3 st4">Feb 18th</text>
			</g>
			<g transform="translate(1037.5,0)">
				<line class="st8" x1="-27" y1="32.1" x2="-27" y2="38.1"/>
				<text transform="matrix(1 0 0 1 -50.6836 49.6589)" class="st3 st4">Feb 25th</text>
			</g>
		</g>
		<g>
			<path class="st8" d="M-33,702.5h6.5V32.6H-33"/>
			<g transform="translate(0,670.5)">
				<line class="st8" x1="-27" y1="32.1" x2="-33" y2="32.1"/>
				<text transform="matrix(1 0 0 1 -52.6816 35.9789)" class="st3 st4">0.0</text>
			</g>
			<g transform="translate(0,585.5)">
				<line class="st8" x1="-27" y1="32.1" x2="-33" y2="32.1"/>
				<text transform="matrix(1 0 0 1 -62.0215 35.9789)" class="st3 st4">100k</text>
			</g>
			<g transform="translate(0,500.5)">
				<line class="st8" x1="-27" y1="32.1" x2="-33" y2="32.1"/>
				<text transform="matrix(1 0 0 1 -62.0215 35.9789)" class="st3 st4">200k</text>
			</g>
			<g transform="translate(0,415.5)">
				<line class="st8" x1="-27" y1="32.1" x2="-33" y2="32.1"/>
				<text transform="matrix(1 0 0 1 -62.0215 35.9789)" class="st3 st4">300k</text>
			</g>
			<g transform="translate(0,331.5)">
				<line class="st8" x1="-27" y1="32.1" x2="-33" y2="32.1"/>
				<text transform="matrix(1 0 0 1 -62.0215 35.9789)" class="st3 st4">400k</text>
			</g>
			<g transform="translate(0,246.5)">
				<line class="st8" x1="-27" y1="32.1" x2="-33" y2="32.1"/>
				<text transform="matrix(1 0 0 1 -62.0215 35.9789)" class="st3 st4">500k</text>
			</g>
			<g transform="translate(0,161.5)">
				<line class="st8" x1="-27" y1="32.1" x2="-33" y2="32.1"/>
				<text transform="matrix(1 0 0 1 -62.0215 35.9789)" class="st3 st4">600k</text>
			</g>
			<g transform="translate(0,76.5)">
				<line class="st8" x1="-27" y1="32.1" x2="-33" y2="32.1"/>
				<text transform="matrix(1 0 0 1 -62.0215 35.9789)" class="st3 st4">700k</text>
			</g>
			<text transform="matrix(1 0 0 1 -17.1797 46.6589)" class="st5 st9 st4">Occurences per Week</text>
		</g>
	</g>
	<g id="travelBanAnot">
		<line class="st10" x1="524" y1="702" x2="524" y2="32.1"/>
	</g>
	<g>
		<g>
			<g transform="translate(551, 85)">
				<g>
					<path class="st11" d="M-27,32.1l-75-49"/>
				</g>
				<g transform="translate(-75, -49)">
					<g transform="translate(-61.546875, -30.989062500000003)">
						<rect x="-27" y="32.1" class="st12" width="62.7" height="28"/>
						<text transform="matrix(1 0 0 1 -27 56.3998)" class="st2 st3 st4">Jan 27th</text>
						<text transform="matrix(1 0 0 1 -27 41.7389)" class="st2 st9 st4">Travel Ban</text>
					</g>
				</g>
			</g>
		</g>
	</g>
	<g id="barLegend" transform="translate(951.77783203125,30)">
		<g transform="translate(0,13.328125)">
			<g transform="translate(0, 0)">
				<rect x="-27" y="32.1" class="st0" width="55.1" height="30"/>
				<text transform="matrix(1 0 0 1 38.0889 52.1389)" class="st3 st4">immigrant</text>
			</g>
			<g transform="translate(0, 32)">
				<rect x="-27" y="32.1" class="st1" width="55.1" height="30"/>
				<text transform="matrix(1 0 0 1 38.0889 52.1389)" class="st3 st4">immigration</text>
			</g>
		</g>
		<text transform="matrix(1 0 0 1 -27 32.1389)" class="st9 st4">Keyword</text>
	</g>
</g>
</svg>
